/* XPM */
static char *background[] = {
/* columns rows colors chars-per-pixel */
"80 80 22 1 ",
"  c #575676",
". c #585777",
"X c #595778",
"o c #5A597A",
"O c #575C84",
"+ c #595E86",
"@ c #5C5F88",
"# c #5C6087",
"$ c #5E6189",
"% c #63658D",
"& c #68678F",
"* c #67688F",
"= c #69688F",
"- c #666790",
"; c #696790",
": c #676890",
"> c #6B6A92",
", c #6F6E98",
"< c #706F97",
"1 c #706E98",
"2 c #6E7097",
"3 c #707098",
/* pixels */
">>>>>&>>>>><><>>>>>>>>>>>>>>>>>>>>>>><>>=>>>>>>>>>>>>>>>;>>>>>>>>>>>>>>>>>>>>>>>",
">>>>>>>>>>>>>>>>>>>>>>1>>>>>>>>>>>>>>>&>>>>>>>>>=>>>>>>>>>>>>>>>>>>>>>>>>>>>>>>>",
">;>>>>>>>>>>&>>>>>>>>>>>>>>>>>>>=>>>>>>>>>>>>>>>=<<=>>>>>>>>>&>>>>>>>>>>>>>>>>>>",
">>>>>>>>>>>>>>>>>>>>>>>>>>>>>>>>>>>>&>>>>>=>>>>>=>>>;>>>>>>>>>>>>>>>>>>>>>>>>>>&",
">>>>>>>>>>>>>>>>>>>>>>>>>>>>>>>>>>>=>>>>=<%@#%+%%%$&>>>>>>&>>>>>>>>>>>>>>>>>>>>>",
">>>>>>>>&>>&>>>>>>>>>>>>>>>>>>>;>>>>>>>>=<%oO+OOOO@&>>>>>>>><;>>>>>>>>>>>>>>>>>>",
">>>>>>>>>>&*-*;>--::>>>>>;>>>>>;>>>>>>>>>>%++++OO@@>>>>>>>>>>>>>>>>>,>:>->>>>>>&",
">>>>>>>>>>%O@@O@@O@@@$@@@*>>>>>>>>>;>>>>==%+++++@O@=>>>>>>>>>>>>>>>>>>>>>>>>>>>>",
">>>>>>>>>>%OO@OO+++++O++O%<>>>>>>>>>>>>>=>$O++++OO@;>>>>>>;>>>>>>>>>>>>>>>>>>>>>",
">>>><>>>>>$@O@@O+++++++++*>>;>>>>>>>>><=>>$O++++O@@>>>>>>>>>>>>>>:>>>>>>:>>>>>>>",
">>>>>>>>>>%OO@@@+++++++++->>>>>>>>>>=>>>==%O++++@@$>>>>>>;>>=%%%$$$$$$>>>>>>>>>>",
">>>>>>>>>>%O@OOO+++O+++OO%>>>>>>>>;><><><<%O++++OO@>>,>>>>>>>@OO++++##>>>>>>>>>>",
">;>>>>>>>>@OO@@O+O+@++++@%>>>>>>>><=<=%$$$#OO$++@O@@$$;>>>>>>@O+#+O+@$>>>>>>>>>>",
">>>=>>>>>>$@@OO@+++++@O+O->>>>>>>>>><;$OOOO@++++O@O@@O->>>>;>%O++###O$>>>>>>>>>>",
">>>>>>>>>>@OO@OO+++++O+OO->;>>>>>><>;;$O@@OOO+++@OO@O@&>>>>>>$@OOO@OO$:*****>>>>",
">>>=>>>;>>*-%%*%%$$$%$$%$;>>;>>>>>>;<=$+@O@O$++++@OO@@&>>>;>>$O+#OO@OOOO@@#@:>>>",
">>>>>>>>>>>>>>>>>>>>>>>>;>>>>>>>;>>>>>#+OO+##O#OOO#OO@->>>>>>$@@+#OOO#O#OO+#:>>>",
">>>=>>;>>>>>>>>>>>>>>>>>>>;>>>>>>>>>>>$+##OOOOO@@O+OOO->>>>>>$O@O+#O#O#O+#+#:>>>",
">>>>>>>>>>>>>>>>>>>:1>>>>>>>>>>>>>>>>>$+O###O#@O++#OO@:>>>>>-@OOO+++#OO#+#++:>>>",
">>>>>>>>>>>>>>>>>>>>>>>>>>>>>>>>>>>>>>@@#OO+OOO@++++@@->>>>>;@O@++++O#O#OOO+:,:>",
";>>>>>>>>>>>>>>>>>>><>>>>>>>>>>>>>>>>>$@#$$$$@OO#####O%:>>>>>@O@++++OO@@++O@:,>>",
"=>>>>>>>>>>>>>>>>>>>>>>>>>>>>>>>>>>>>>>>:>,:>%@O+OO+++->>>>>>@@O++#+#OOO++O#-,>>",
"=>>;>>><>>>>>>>>>>>>>>>>>>;>>>>>>;>>>>>>>:::>*OO+++O++-,>>>>>@O@++O+O#@O+#+O->:>",
"&<>&>>&>>>>>>>>>>>>>>>>>>>>>>>>>>>>>>>>>>>>>>*@O#++#++->>>>>;@OO+#+++#--%%%--,>>",
"&>>>>>;>>>>>:>>>>>>>>>>>>>>:>>>>>>>>>>>>>>>>>-@OO@@@@O>>>>;>>@@@O@OO@$,>><>>>>>>",
"&>>>>;>><>>>>>>>>>>>2>>>>>>>>;>>;>>>>>><>>>>>*O@OOOOO@->;>>>;@OO@@O@@$>>>>>>>>>>",
"=>>>>>>&*&&*-%%%*%*%$$:>>>>>>>>>>>>>>>>>>>>>>*OO@O@OO+->>>>>>---;----:>>>>>>>>>>",
"><>;>;%+O@OOOO#OOO@O++->>>>>>>>>>>>>>>>>>>>>>*O@OO@+O+;>>>>>>>>>>>>>>>>>>>>>>>>>",
">>>>>>$+@@O@OOO#@OO#OO#$$:>>>>>>>>>>>>>>>>>>>*######@O->>>>>>>>>>>>>>>>>>>>>>>>>",
">>;=>=$OOOO@OOO#OOOO@OOOO%>>>>>>>>>>>>>>>>>>>>:>::::>>;>>>>>>>>>>>>;>>>>>>>;>>>>",
">>>;<<$OO@@O#O##@@O#OOO#+->>>>>>>>>>>>>>>>>>>>>>>>>>><>>>>>>>>>>;>>>>>>>>>>>>>>>",
"=>=%%$++@OOOO#OOO@OO####O$>>>>;>>>>>>>1>>>>>>>>>>>>>>>>>>>>>>>>>;>>>>>>>><>>>>>>",
"::%#O#OOOOOOOOO##OO#@OOO@$;>>>>>>>>>>>>>>>>>>>>>>>>>=>>=>>>>>>>>>>>>>>>>>>>>>>>>",
":,-OOO###O###O#O#O#O@O@O+$>>>>>>>>>>>>>>>>>>>>>>>>>>>>>>>>>>>>>>>>>>>>>>>>>>>>>>",
">>-###O#+OO##O#+O#@OOO@OO$>>>>>>>>>>>>>>>>>>>>>>>>>>>>>>>>>>>>>>>>>>>>>>>>>>>>>>",
">>-@+O+#O##OO#+OOOO@O@@++%>>>>>>>>****>>>:>>:>>>>>>>=>>>>>>>>>>>>>>>>>>>>>>>>>>>",
">2%##OOOO++++OOO#OOO+++OO$=<>>>>>$OO@@@@##:>>>>>>>>>>>>>>>>>>>>>>>>>>>>>>>>>>>>>",
":>%#OOO++O+++#+#O#O#+O@$$$==><=>>$O#OOOO##:>>>>>>>=>>>>>>>>>>>>>>>>>>>>>>>>>>>>>",
">>::%%%#+#++++O+#OO#++%><=;<>>=;>$O#O#O@O#:>>>>>>>>>>>>>>>>>>>>>>>>>>>>>>>>>>>>>",
">>>>,,:#O++++O@+OO##++%>==<=>>><>%OO#O@O##>>>>>>>>>>>>>>>>>>>>>>>>>>>>>>>>>>>>>>",
">>>>>*>$O@O+++O+#OO#OO%:>;<>>>>>>$##++OOO#>>:>>>>>>>>>>>>>>>>;>>>>>>>>>>>>>>>>>>",
">>>>>>>$O+@+++@@O#O##O%>=<=><>;;>$OO+@+++#>>>>>>>>>>>>>>>>>>>;>>>>:>>>>>>>>>>>>>",
"%>>>>>>$O@O+OO@OO#O##O%:<;<=;>><>%O#O@@O+$>>>>>>>>>>>>>>>>>>>>>>>>>>>>>>>>>>>>>>",
"o2>>>>>%OO@@+OO+OOOOO#%>;>=<=>>>>$OO++O+O#>>>>>>>>>>>>>>*-;***%*$--%-%$:>>>=>>>>",
"o2>>>>>*--$$%$%$######%2><=;;>=<>:-%%-%%-%>>>>>>>->>>>>$+O++OO@OOO++@OO*>>>>>>>>",
"o2>>>>>>>,:>>>>>>>:>::>>;=<;>>;>>>>>>>>>>>>>>>>>>;>>>>>#++##@O@O#+#OOOO@$$%>>>>>",
"o<>>>>>>>>>>>>>>>>>>>>>>=<>>>>>>>>>>>>>>>>>>>>>>>>>>>>>$O+OOOOOO#O#O#OOOOO@;>>>>",
"o>>=>>>>>>>>:>>>>>>>>:,><>>>>;>>>>>>>>>>>>>>>>>>>>>>>>>$++O++#O@+#+OO#@@@O@>>>>>",
"o<>>>>>>>>>>>>>>>>>>>>>>>>>>;><=<>>>>>>>>>>>>>>>>>>>%-$@@+O+++++O+#++++++++-:>>>",
"X2>>>>>;>>>>>>>>>>>>>>>>>>>>>;>>>>>>>>>>>>>>>>>>>>>%#+++++O++O++#O+O+++O++#O%>>>",
"o3>>>>>>>>>;>>>>>>>>>>>>>>>>><>>>>>>>>>>>>>>>>>>>>>%++++++++#OO+O##O+++++++#%>>>",
" >>>>>>>>>>>>>>>>>>>>>>>>>>>;>><>>>>>>>>>>>>>>>>>>>*++#++++++#O#O#O#++++++++%:>:",
" >>>>>>>>>>>>>>>>>>>>:>:>>>>>>>>>>>>>>>>>=>>>>>>>>>%@@@+OO#O++++O#OOO#O#++O#$:>>",
"o2>;>>>>>>=>>>>>>>>>,>:->>>>>>>>>>>>>>>>>>>>>>>>>>>*@@OOOOO#+O+OO#OOOO#O++O#$,>>",
"o2>>>>>>>>>>>>;>:>>>>>,->>>>;>>>>>>>>>>>>>>>>>>>>>>%@OOO##OOO#++#O#O+O######%>,:",
"o,>>>>>>>>>>>>>>>>>>>>-,<>>>>><;>>>>>>>>>>>>>>>>>>>>%--%#O##O+++O#O#O##%:2:2,->:",
"o<;>>>>&>>>>>>>>,::,-:-::::->-:-==><==<=>>>>>>>>>>>>2>>>#OOO@#+#OOO##OO%>>>>>>>>",
"o<>>>>*>>>>>>>>>:%$#$###########@>>><==>>>>>>>>>>>>>>>>:$O#O#O++@O#OO#O%>>>>>>>*",
"o1>=>>>>>>>>>=>>-#++#O###OO##O#OO%&%&<>>>>>>>>>>>>>>>>>>$+##++++O@O@O#O$>>>>>>>>",
"o1>>>>>>>>>>>>=>-#++O#OOO#O#OOOOO+OO@>>>>>>>>>><>>>>>>>>$OOO++++@OO@#OO%>>>>>>>>",
"o1;;>>>>>>>>>>>>-@++++++O##+O#O#O@@O$>>=>>>>>>>><>>>>>>>$O++++++OOOOOOO%>>>>>>>>",
"o<>;>>>>>>>>>>*>-##+++++#O++#O#O@O@O$=>&>>>>>>>>>>>>>>>>-%-$@$$$%@@@%@+*>>>>>>>=",
"o1>;>>>>>>>>>$@@++++O+++++++#OO@O@@O+@@%>>>>>>>>>>>>>>>>>>>,:,,:>>>=&=>>>>>>>>>>",
"o1>>>>>>>*>>>@OO++++O+++++++OO#OOOO@@OO@>>>>>>>>>>>>>>>>>>>:,::,>>>>>>><><>>>>>>",
"o<>>>>>>>>>>>%O+++++##O+O#++++++O#OO##+$>>>>>>>>>>2>>>>>>,>>>>>>>>>>>>><>>>2>>>>",
"o<>>>>>>3><>>$O+@+#+O##+++++++++O@O##O+$>>>>>>>>>>>>>>>>>:>:>>>>>>>>>>>>>>>>>>>>",
".<>>>>>>>>>>>$@@O+O+#OO#+OO+OO++@OO@O#O#>>>>>>>>>>>>>>=>:>:->>>>>>>>>>>>>>>>>>>:",
"o>>>>>>>>>>>>$OOO++OOO#O++++++++O@OOO+O#>>>>>>>>>>>>>>>>,:,,>>>>>>,<>>>>>>>>>>>>",
"o1>=>>>>>>>>>%@%##+++++#++++++++O****>==>>>>>>>>>:$%%%%$@$%$-$$#%%%$%$%%--%:>>>>",
"o>>>>>>>>>>>>>><>:@+#+OO++++++++@*>>>>>>>>:>>>>>>%OO@OOO++++O#OOOOOOOOOOO#O:>>>>",
"o1>>>>>>>>>>>>>>>:$++O##++++++++@%>>>>=>>>>>>>>>>-O##O@O++#OO#OOO@@OO@@OOO#:>>>>",
"o,>>>>>>>>>>>>>>>>#+#+O+++++++++@=>>>>=>2>>>>>>>>%O#O@O@++##O##O@OOO@O@@###>>>>>",
"o2>>>>>>>>>>;>>>>>##+O+O++++++++@%>>>>>>>>>>>>,>>%@OO#OOOO###OO#OO#+OO##OO#:>>>>",
"o2>>>>>>>>>>>>>>>:#OOO+O+++++O++O*=>>>>>>>>>>>>>>-O##OO#O#OOOOO#@OOO#OOOOO#->>>>",
"o,:>;>>;>>>>>>>>>>$$$##@++++++++@->>>>>>>>>>>>>>>%@OO##O#####O#O+##OO#O#++#:>>>>",
"o,>>>>>>>>>>>>>>:>>>>::>-:--%$%%*>>>>>>>>>>>>>>>>-O+#OOOOOOOO#OO#O+###O#++#:>>>>",
"o2>,>>>>>>>>>>>>>>>>>>,:>>2>:22:1>>>>>>>>>>>>>>>>%@O@@#@OO######+##O#O#O#+#:>>>>",
"o3:,>>>>>>>>>>>>>>>>>>>>>>>>2:::>>>>>>>>;>>>>>>>:>>-:*>:-%>>-------%--**--:>>>>>",
"o,>>>>:>>>>>>>>>:>>>:>>>>>>>2>,>>>>>>>>>>>>>>>>>>>>>>>>>,>>>>>2>>>>2>>>>>>>>>>>>",
"o2>>>>>>>>>>>>>>>>>,>>>>>:>>>>>:>>>>>>>>>>>>>>>>>>>>>>>>>>>>>>>:>:>>:>>2::>>>>>>"
};
