/* XPM */
static char *prueba[] = {
/* columns rows colors chars-per-pixel */
"64 43 256 2",
"   c #010007",
".  c #02030D",
"X  c #09050D",
"o  c #050513",
"O  c #040719",
"+  c #060813",
"@  c #05091C",
"#  c #080715",
"$  c #080719",
"%  c #090916",
"&  c #0A0A1B",
"*  c #100E1E",
"=  c #040720",
"-  c #060B23",
";  c #060D2B",
":  c #0A0D24",
">  c #0A0E2B",
",  c #060E32",
"<  c #0A0F33",
"1  c #0D1026",
"2  c #0B112D",
"3  c #071133",
"4  c #07113B",
"5  c #0B1234",
"6  c #0B133B",
"7  c #0E183F",
"8  c #100E23",
"9  c #110F2A",
"0  c #131225",
"q  c #12122D",
"w  c #18152F",
"e  c #18182C",
"r  c #131434",
"t  c #12163B",
"y  c #14193C",
"u  c #181634",
"i  c #1B1539",
"p  c #1A1934",
"a  c #1A1A3C",
"s  c #231C3B",
"d  c #291E36",
"f  c #241D36",
"g  c #2B223E",
"h  c #071241",
"j  c #0B1543",
"k  c #0B164A",
"l  c #0E1945",
"z  c #0E194C",
"x  c #0D1B53",
"c  c #0E1D5A",
"v  c #111641",
"b  c #131748",
"n  c #131944",
"m  c #131C4B",
"M  c #1B1C44",
"N  c #1A1E4B",
"B  c #131C53",
"V  c #141E5B",
"C  c #1B1E52",
"Z  c #191F5C",
"A  c #151F63",
"S  c #191E60",
"D  c #0F205C",
"F  c #112044",
"G  c #17234C",
"H  c #1C214C",
"J  c #152154",
"K  c #14215C",
"L  c #1B2254",
"P  c #1B245C",
"I  c #1D2859",
"U  c #0F2161",
"Y  c #132364",
"T  c #14246A",
"R  c #15286D",
"E  c #1B2563",
"W  c #1A256B",
"Q  c #1E2A63",
"!  c #1B296B",
"~  c #142772",
"^  c #152974",
"/  c #162B7C",
"(  c #1B2772",
")  c #1B2779",
"_  c #1A2A73",
"`  c #1A2D7B",
"'  c #1D307F",
"]  c #20174B",
"[  c #221F43",
"{  c #201E4D",
"}  c #242041",
"|  c #23234C",
" . c #2C2342",
".. c #2C284F",
"X. c #2C2448",
"o. c #242654",
"O. c #23275B",
"+. c #202856",
"@. c #24295D",
"#. c #2C2655",
"$. c #28275A",
"%. c #2D2853",
"&. c #2B2C5C",
"*. c #34274A",
"=. c #33294C",
"-. c #332B53",
";. c #342F5F",
":. c #3A2D54",
">. c #333548",
",. c #36305B",
"<. c #3B325D",
"1. c #202065",
"2. c #242B63",
"3. c #232C6B",
"4. c #2A2C61",
"5. c #2A2D6B",
"6. c #252575",
"7. c #242E73",
"8. c #242B7A",
"9. c #292F77",
"0. c #2C2979",
"q. c #253174",
"w. c #23307D",
"e. c #2A3173",
"r. c #2F397C",
"t. c #2D317C",
"y. c #332D63",
"u. c #322E74",
"i. c #39297C",
"p. c #353367",
"a. c #393363",
"s. c #36366B",
"d. c #333474",
"f. c #33337E",
"g. c #3F3D7C",
"h. c #3A3773",
"j. c #3F497A",
"k. c #40355B",
"l. c #4D3B69",
"z. c #44377D",
"x. c #413B7A",
"c. c #533E6B",
"v. c #513F7C",
"b. c #593E7D",
"n. c #45485E",
"m. c #47407D",
"M. c #4F5379",
"N. c #55416F",
"B. c #51437C",
"V. c #172E81",
"C. c #192E82",
"Z. c #173186",
"A. c #1C3284",
"S. c #1C348C",
"D. c #1D3591",
"F. c #1E3994",
"G. c #2B2F89",
"H. c #232E83",
"J. c #293788",
"K. c #2D3887",
"L. c #213384",
"P. c #253592",
"I. c #233C94",
"U. c #223B9A",
"Y. c #293A92",
"T. c #3B3382",
"R. c #3C318A",
"E. c #383C91",
"W. c #383893",
"Q. c #203DA0",
"!. c #2C38A5",
"~. c #3E3FB0",
"^. c #2F4096",
"/. c #3F4082",
"(. c #3F418C",
"). c #374392",
"_. c #2541A2",
"`. c #2B4AAC",
"'. c #2643AC",
"]. c #2447B4",
"[. c #2C44B2",
"{. c #2B4CB3",
"}. c #2B4CBB",
"|. c #3447B1",
" X c #314DBC",
".X c #3452BE",
"XX c #294DC2",
"oX c #3E4ECE",
"OX c #3552C9",
"+X c #3656D4",
"@X c #3E56D7",
"#X c #463E8D",
"$X c #4B3783",
"%X c #433782",
"&X c #4B3D9B",
"*X c #433692",
"=X c #583A80",
"-X c #543E82",
";X c #553FA1",
":X c #583FA8",
">X c #40468B",
",X c #4E4D9D",
"<X c #52448F",
"1X c #574C88",
"2X c #584789",
"3X c #5B4B85",
"4X c #5B4182",
"5X c #50409E",
"6X c #594798",
"7X c #5B519C",
"8X c #4A45AB",
"9X c #4146A3",
"0X c #4950BE",
"qX c #5D49A1",
"wX c #5847BB",
"eX c #594DB8",
"rX c #5043B4",
"tX c #5351AC",
"yX c #5051B5",
"uX c #5759BA",
"iX c #595EBD",
"pX c #565BB4",
"aX c #634794",
"sX c #6C4497",
"dX c #6D4B94",
"fX c #6C5090",
"gX c #724A9B",
"hX c #70459A",
"jX c #7D5598",
"kX c #684987",
"lX c #6A47A5",
"zX c #6B4BB6",
"xX c #764EA4",
"cX c #7D4EBC",
"vX c #735DAD",
"bX c #7362BE",
"nX c #4C4DCE",
"mX c #484CC3",
"MX c #4F5CD5",
"NX c #5451CD",
"BX c #575DD5",
"VX c #456CE7",
"CX c #5964EC",
"ZX c #596AF9",
"AX c #5071E8",
"SX c #5F77FE",
"DX c #705AD5",
"FX c #6E62C5",
"GX c #786AC9",
"HX c #7C70D1",
"JX c #8A4FBD",
"KX c #8050B3",
"LX c #8A5DD3",
"PX c #8562CB",
"IX c #9461D6",
"UX c #9092B2",
/* pixels */
"o o X o # . . # & o % % o O o O o . o o O o $ O O ; 4 t ; j 4 5 6 7 7 j M <.N.3X1Xs.G 5 F G 7 3 - @ - @ @ + + .   . . .   . y I ",
". . . o O o o o O o o % o o o % o . . o & @ o o # ; j v r 6 3 v M t y n a *.c.3X3XB.<.| G Q U U 7 3 ; @ - @ + @ &   . . . + o : ",
"o o + + % # o . o o . . o . & + o o o o & O O o $ ; 4 t ; 4 k z #.#.+.o.f k.kX4X-XhXgXdXB.).`.' c l 6 3 ; - @ @ @ + o o . X .   ",
". # # . o o X o # . . o % + # # # O # % # % o O # 9 < 6 3 3 l m N y.2.o.*.n.KXlXlXcXcXKXxX5XMXiX7X1Xm.&.M 1 - 2 2 : = +   + o . ",
"o o o . . . . X # o o o % # o o o + o # + . + + # : t 6 6 > < 4 b L 2.o.,.c.fX6XzX6XlXlXhXzXDXbXGXHXHXFX<Xy.&.+.z k ; o . . +   ",
"# o . o o + o o $ # o o o o . . . + . % o . o @ O @ 5 4 j < < O.2.3.@.2.;.<.v.#X&XT.T.sXhXLXPXaX=Xz.).).yXtX,X&.6 ; 3 O . .   o ",
"# . # o . o + o . o o . # o . . o . o o o   @ O O @ 4 k z x P g.h.s.L Q P +.7.f.;XT.1.$XJXIXvX2XB.d.` ) W.uXuX(.+.4 l 4 1 . . o ",
"# o # o o o o . X . . . # O o o O o O @ O o @ + . O 4 ~ A ~ r.d.p.a.L J E Y ! u.:X*X) Y.eXb.-.-.y.I ~ I.Z.J.(.T.2.E x l 3 o % # ",
"+ % % % # # % . o . X + # # + # O O @ ; - : - + % O 3 U ^ _ 7.q.d.O.N P _ / w.f.mXmX~.oX|.&.X.s s i j A.Z.T 4.e.! Q m 5 : @ $ % ",
"@ O O @ & O % + o % + # & % X o @ @ @ : @ @ @ - @ @ ; j T ! 5.f.K.W x ! ~ ) H.P.NXrXwXCXoXZ [ *. .r ; c D B L _ 7.P t O @ & # # ",
": - - O : - 1 + o o O & 0 & # o + + @ - @ + @ - @ O ; Y I L Y 0._ R ~ ) A.S.D.Y.8X*XR.BXZXG.] s u : r 4 4 m M q.7.N M u 8 # # X ",
"t 5 5 1 - 2 ; : @ - O @ 8 & + % + @ ; 1 @ - @ O O - N E C P A W ! ~ S._.`.F.Z.S.0.T.&X0XSXnX6.N s < 6 7 j G | q.7.M {  .s 8 o . ",
"G r n y q 3 1 @ ; : @ : & : : @ - ; : - - ; : - ; 3 l m k V V c Y W A.A.` ` H.H.6.i.&X8XAX@X!.8.1.S W T D K K _ W P [ d  .w . . ",
"G n I +.y y F q 3 3 1 @ @ > > ; 1 - = @ 1 1 ; 7 6 j j j c k m k T W Y Y T T ! ( S C u.8.{.VXOX[.!.[.!.U.^ ~ / A._ Q o.s g w O o ",
"#.2.&.| F F I | y > 1 = = - 2 2 ; - @ @ q r 6 I m j z U Y J L G C _ ` R _ Y T V k S 8.( C.}.OX X XXX}.}.F.S.I.D.^ R B N X.9 $ # ",
"@.I G | +.2.p.p.I 3 5 5 > ; : = : - @ O - r +.UXj.B J T c B | M i j ~ ` ! W T k b 8.Y.` C.V.~ ) L.).U.[.XX]._.D.^ T T E a 8 q = ",
"m N H $.4.+.| G I m H n ; : - @ @ ; : - - 1 F M.&.v n k k h 5 5 > > t m C C 5 : < B Y T T Z x j b W ` A.U.{.'./ ~ T Y V ; * : : ",
"z n B C G 5 2 5 ; G +.M ; 1 : - @ O 1 ; ; ; 2 t y 5 5 6 4 6 5 ; ; ; 5 5 r : # # @ < , 5 , ; : @ @ 4 V Z W _ D.D.U T R E t O $ - ",
"x P m B m ; : ; = t I F ; : @ @ - @ - 1 1 : 1 5 j l 6 j h 7 ; > 9 - - = @ @ o # & : - $ $ # o # $ < k C b B T A.^ ` A.E W P m C ",
"x ~ V x z y 3 ; 5 | H z 5 - - @ - - - & @ O > 5 j x z k k y 1 2 : $ & @ = @ & $ % % @ # o o o o @ > t a 8 4 B T R / A.) W T E 3.",
"j Y ( k n [ M M X.>.| G 5 - 1 ; 2 > - @ @ = 2 5 6 V x j J y r u 8 o = = > - # % # $ @ O X + % # O - r > $ 6 c Y Y R _ A.T c T / ",
"6 V ` V n [ -.%.+.&.I K F 2 ; ; < ; = O = : > 5 5 v l 4 M y w r 8 o : = 8 = o o * @ @ o o + o o O = = = ; k x D ^ U c U ! ^ S.S.",
"6 Z ^ c b N y.u.' F.`.^.` ! J l 4 ; = $ : > 2 5 5 5 n b H u : - = @ 5 & : : @ @ : @ O O # # O O @ @ o O < x h c Y x z Q ^.F.I.I.",
"4 x Y B b C 3.8./ / S._./ T T x 5 ; > < 6 6 5 5 5 6 t t l ; ; < 5 2 ; ; @ > > % @ % o O % # O o O = @ & ; B k j 6 6 z / }.}.'.Z.",
"4 k V k K K B x V c Y Y c x j 6 t 4 6 5 5 5 2 2 5 4 > ; h ; 0 & p p ; 4 : 1 & & & : % o O % o . + @ @ O = 6 6 3 6 7 m T ` I.U.A.",
"; 6 m N n j 4 z x k k k j 6 r ; 4 n 4 , ; @ : > 5 ; 1 4 4 5 u w q 5 r 2 ; = $ # $ # O # o . . . + @ O @ - : - 5 5 6 m V V Z / D.",
"$ : M [ t 5 z U c h 4 m M 6 4 v l t 7 ; ; > : 1 < ; - < 2 r q ; > 5 q @ @ : O & & o o # # . . o o + + - @ - O & = < 6 M r j V _ ",
"O O i M t h Y D 6 : : 5 { o.M 4 B k k < ; = ; 6 5 - ; 6 y 2 + o & & & + O O O # # o # + O # # # o o + - : + o O = 1 p u @ < B T ",
"8 9 p [ n k k h 6 ; : & < v #.r 4 z K z 3 ; 6 l , ; > a t @ % o @ & O @ O O # o >.e % & : @ @ # o o O @ > O # # o = ; : = j V Y ",
"8 & a [ n 4 k 6 6 4 t 5 - @ w f a 4 c Y z l y 4 ; 2 t u 2 1 - @ O % $ O @ : * $ n.p o & % * O . o o o O @ @ # o O @ O O < k k c ",
": 8 i [ m B l ; , l 7 : $ O @ i %.,.&.z j , ; 5 ; 5 2 2 ; @ @ @ O o . o % + o % $ O + O O @ o . . . + O % O O @ = @ # O 3 x h z ",
"9 p s M z z - , , 1 O & O O @ ; 2 u u ; ; ; ; > ; : O o : @ O O o o o . o . . o + o O + 1 O . . . . o O O # + o + = @ @ ; m z 4 ",
"i a y l D 4 , = O O O # o @ = @ . O O o O O o o o @ o . + @ O o X . + . + +   . +   + . % O % . . . o o # . . . + O O O = ; ; 5 ",
"m j G z ; ; = o o o o o o o . o O @ $ o @ . . . o . O O O # O . + o     . . . . + + % + . O o o . . o o # . . # # # O & - - O 1 ",
"x z l ; @ O . . o . . o . . . o O o o O +   . . . . o O @ % . O % . . .   X . . + o % . .   o o # & O # O X X o o O o & - @ % O ",
"j 5 ; o @ % . . . . .   o   . $ o o X + + +   . .   . + o o o o % . . .       o +   . . . . . + o # $ O @ O O $ o o O @ : + % O ",
"j 5 ; o @ % . . . . .   o   . $ o o X + + +   . .   . + o o o o % . . .       o +   . . . . . + o # $ O @ O O $ o o O @ : + % O ",
"j 5 ; o @ % . . . . .   o   . $ o o X + + +   . .   . + o o o o % . . .       o +   . . . . . + o # $ O @ O O $ o o O @ : + % O ",
"j 5 ; o @ % . . . . .   o   . $ o o X + + +   . .   . + o o o o % . . .       o +   . . . . . + o # $ O @ O O $ o o O @ : + % O ",
"j 5 ; o @ % . . . . .   o   . $ o o X + + +   . .   . + o o o o % . . .       o +   . . . . . + o # $ O @ O O $ o o O @ : + % O ",
"j 5 ; o @ % . . . . .   o   . $ o o X + + +   . .   . + o o o o % . . .       o +   . . . . . + o # $ O @ O O $ o o O @ : + % O ",
"j 5 ; o @ % . . . . .   o   . $ o o X + + +   . .   . + o o o o % . . .       o +   . . . . . + o # $ O @ O O $ o o O @ : + % O ",
"j 5 ; o @ % . . . . .   o   . $ o o X + + +   . .   . + o o o o % . . .       o +   . . . . . + o # $ O @ O O $ o o O @ : + % O ",
};
