/* XPM */
static char *collectable[] = {
/* columns rows colors chars-per-pixel */
"80 80 106 2 ",
"   c #4F4A5D",
".  c #524D5E",
"X  c #57505F",
"o  c #58505F",
"O  c #62565F",
"+  c #534E60",
"@  c #565061",
"#  c #5B5465",
"$  c #5D5668",
"%  c #615660",
"&  c #635A63",
"*  c #695D64",
"=  c #655C6D",
"-  c #685E6F",
";  c #675E70",
":  c #6D6375",
">  c #706576",
",  c #766A7A",
"<  c #7A6D7D",
"1  c #896F65",
"2  c #82726B",
"3  c #8A746A",
"4  c #9A7F6F",
"5  c #837370",
"6  c #887674",
"7  c #947B71",
"8  c #9D816E",
"9  c #998073",
"0  c #A1846C",
"q  c #B18D6E",
"w  c #BC916A",
"e  c #A18671",
"r  c #A28871",
"t  c #AE9476",
"y  c #C99B6E",
"u  c #D09E6F",
"i  c #C09F79",
"p  c #CBA173",
"a  c #D5A371",
"s  c #D9A772",
"d  c #DCAA74",
"f  c #D5AD7B",
"g  c #D9AF7A",
"h  c #E6AC70",
"j  c #EAAE70",
"k  c #EDB373",
"l  c #EEB877",
"z  c #EEBC7D",
"x  c #F0B674",
"c  c #F0BE7D",
"v  c #EFC07F",
"b  c #F0C17F",
"n  c #595E86",
"m  c #5B5F88",
"M  c #5D6189",
"N  c #65668E",
"B  c #7B6F80",
"V  c #7F7281",
"C  c #666790",
"Z  c #676890",
"A  c #6C6B93",
"S  c #716F96",
"D  c #747197",
"F  c #767298",
"G  c #7C769B",
"H  c #7E789C",
"J  c #837484",
"K  c #877888",
"L  c #8C7B8B",
"P  c #907F8F",
"I  c #857C9F",
"U  c #897E9E",
"Y  c #917F90",
"T  c #867EA0",
"R  c #887FA0",
"E  c #92808F",
"W  c #8D819C",
"Q  c #968395",
"!  c #9A8696",
"~  c #9C8897",
"^  c #938399",
"/  c #998798",
"(  c #99889F",
")  c #8C81A2",
"_  c #9286A5",
"`  c #9688A7",
"'  c #9889A7",
"]  c #9789A8",
"[  c #998AA9",
"{  c #D8B581",
"}  c #EDBD81",
"|  c #F1BF80",
" . c #EDC283",
".. c #F2C482",
"X. c #F3C986",
"o. c #F3CD8A",
"O. c #F5D28E",
"+. c #F5D592",
"@. c #F6D897",
"#. c #F5DA9B",
"$. c #F5DDA2",
"%. c #F6E0A6",
"&. c #F5E1AA",
"*. c #F5E5B2",
"=. c #F6ECBC",
"-. c #F7EEC1",
/* pixels */
"M n n n N C A A A A A Z A A A A A A A A A A N Z A A A Z A A A A A A A A A A A A A A A A A A A A A A A A A A A A A A A A A A A A A A A A A A A A A A A A A A A Z ",
"n n M M C A A D D D D D A A A A A A A D A I I A D D D D D S D D S S S A A A A A S S S F S F F S F S S F F F D A A A A A A A A F S S F S S F S F F S F A A A A Z ",
"n M A A A A A T T T T T S A A A A A N I I I I I I I I I I I R R I I G A A A A S I I T I T T T T T T T T T H H D A A A A A A G T I I I I T I I I T I I S A A A A ",
"M M A A A A S H H T H H S A A A A Z Z S I I I I I I I I T T R R I I G A S A A D I T I I T T H T T T T T R T H D A A D A S A G T I I I I T T I I I T I S A A A A ",
"C A A A F H H I ) H ) H H H H H I I I I R R R R I I R R R R R R I I I I I G I G T T T T R R R [ R R [ [ [ ] _ H H H H H H H T T T T I I R R R R I I I H H F A A ",
"A A A A G T I T H H ) ) ) H T ) R R I I I R R R I I R R R R R R I I I I I I I I T T I I T R R R [ [ [ [ [ [ [ R H T T T T H T T R R I I R R R R I T T I I H A A ",
"A A F D H I I ) ) _ ) ) ) ) ) ) R R I I R I R R I R R R R R R R I I I I I I I I T T R R R R R [ [ [ [ [ [ [ [ R R R T T T T H T R R R R R R R R R R T T T G A A ",
"A A I I T I ) ` [ [ [ [ [ [ ] ` R R I I I I R R R R R [ R [ [ [ R I I I I I I I R R R R R R [ [ [ [ [ [ [ [ [ [ ] _ H T T H T T R R R R [ [ [ [ R R T T T G A A ",
"A S H T T T T ` [ [ [ [ [ [ [ [ R R R R I R R R R [ [ [ [ [ [ [ R R R R R R R T T T I T R [ [ [ [ [ [ [ [ [ [ [ ] _ H T T H T T R R R R [ [ [ [ R R R R I I A A ",
"A S T T T T T ) ) _ [ [ [ [ ` ) R I R R I R R [ [ [ [ [ [ [ [ [ R R R [ [ R R T T T I I R [ [ [ [ [ [ [ [ [ [ [ [ R T T T T _ R R [ [ [ [ [ [ [ [ R R R I I A A ",
"A S I T T I I I ) _ [ [ [ [ _ ) I I I I I R R [ [ [ [ [ [ [ [ [ [ [ [ [ [ R I I I I I I R [ [ [ [ [ [ [ [ [ [ [ [ _ T T T T _ ] [ [ [ [ [ [ [ [ [ [ R R I I A A ",
"A S H I H T T T H ) ` ` [ [ ) H I I I I R I R R [ [ [ [ [ [ [ [ [ [ [ [ R T I I I I I T R [ R R [ [ [ [ [ [ ' R ] R T T T R R ] [ [ [ [ [ [ [ [ [ R R I I D A A ",
"A A S A G I T T H T T T I I ) H I I I I R R [ [ [ [ [ [ [ [ [ [ [ [ [ [ [ R I I I I I I I I T T R T T T T T I T T T T T T T R ' [ [ [ [ [ R R R R R R R I D Z A ",
"A A S A G T I H T T H T H ) ) H I I I I R R [ [ [ [ [ [ [ R [ [ [ [ [ [ [ R I T I I I I I I I I T T I T I I I I T T T T T T R ' [ [ [ [ [ R R T R R R R I I A A ",
"S A A A G I T T T T ) H H ) H ) I I R U R R R R R R R [ R R R R [ R R R [ R T T I I I I I I I I I I I I T I I T T G T T T R R R R R R R R R T T I T R I I A A A ",
"A A A A G T H T T H H ) H H ) H I I R R R R R R R R R R R U R R R R R R R R T T I I I I I I T I I I I R T T G T T T T T T R R R R R R R R R I I T T I S A A A A ",
"A A A S H H T T T T T T T T R R R R R R R T T T I I I I I R I I I I I I I I U U U U I I I I U I U R R U R R R R R R T T T I I I R R R R R R R R R R I A A A Z A ",
"A S H H T T H T T T T T ' R ' [ ' [ [ R R R T T I R I I I I I I I I I I I I I U ! ! ! Q ! ! ! ! Y ~ ! ~ Y ( Y R R R R R T T I I R R R R I R R R R R I A A A Z A ",
"A S T T T T T T R T T R [ ' [ [ [ [ [ R T R T T I I I R I I I I I I U I U I T U ! ! ! ! Q ! ! ! ~ Y Y ~ Y ~ Y R R R R R I I I I R R R R R R R R I I I A N A Z A ",
"A S T T T T T R ' R R ' [ [ [ [ [ [ [ [ R R T T R I I I I R I I R Y ^ U _ Y U Y ! ! ! ! ! ! ! ! ~ ~ ~ ~ ~ ~ ~ U U Y U Y I I I I R [ R R R R R R R I I I I S A A ",
"A S T T T T T ` [ [ [ [ [ [ [ [ [ [ [ [ [ [ R R R R R I R R R R ~ ~ ~ Y ! ! ! ! ! ! ! ! ! ! ! ! Y ~ ( ~ Y ~ ~ ~ ~ Y ~ Y U R I I R [ [ [ [ [ [ [ R R R R R R A A ",
"A A T T T H T ` [ [ [ [ [ [ [ [ [ [ [ [ [ [ R R R R R I R R R Y Y ~ ~ ~ ! ! ! ! ! ~ ~ ! ! ~ ! ! ~ ~ Y ~ ~ ~ ~ Y ~ ~ ~ ( U U I R R R [ [ [ [ [ [ R R R R I I A A ",
"A A G T T T R ] [ [ [ [ [ [ [ [ [ [ [ [ [ ' ' ' R R R R R Y Y [ ~ ~ ~ ~ ! ! ! ! ! ! ! ! ~ ! ! ! ~ ~ ~ ~ Y ~ Y ~ ~ ~ ~ Y ~ ~ R [ [ [ [ [ [ [ [ [ R R [ R I I N A ",
"A S I T T T R ` [ [ [ [ [ [ [ [ [ [ [ [ [ [ ' [ R U R R R R ~ ~ Y ~ ( Y ! ! ! ! ~ ~ ~ ~ ! ! ! ! ~ Y ~ ~ ~ ~ ~ ~ ~ Y ~ Y ~ Y ~ [ [ [ [ [ [ [ [ [ [ [ [ R I I N A ",
"A S T T I I T R R [ [ [ [ [ [ [ [ [ [ [ [ [ [ [ R R R U Y [ Y Y ~ ~ ~ ~ Y ~ Y Y J J J J J J J J J J J J Y ~ ~ Y ~ Y ~ ~ Y Y [ [ R R R [ [ [ [ [ [ [ R R I G A A ",
"A S T T I I I I R R [ [ [ [ [ [ [ [ [ [ [ [ [ [ [ R R Y Y ~ ~ ~ ~ ~ ~ ~ ~ ~ ~ Y @ + @ . . . . +   + + + J ~ ~ [ ~ [ ~ Y ~ ~ Y R R R R R [ [ [ [ [ [ R R I I A A ",
"A S I I I I T T R R [ [ [ [ [ R [ [ [ [ [ [ [ R R R U Y Y ~ ~ ~ Y ~ ~ ~ Y Y Y P @ + $ & & % & & O O @ + 5 Y Y Y Y ~ ~ ~ ~ ~ Y R R R R R [ [ [ [ [ [ R R I G N A ",
"A A A A G I I I R R R R R R R T R R R R R R R T R ( Y ~ ~ ~ ~ Y ~ ~ Y ~ Y 5 - = + @ t { g { { f { i % @ $ - > Y ~ ~ Y ~ Y Y ~ [ Y R R R R R R R R R I I I I A A ",
"A A A A G T T T R T I I I I T I R R T T T I I I Y ( ~ ~ ~ Y ~ ~ ~ ~ ~ Y ~ : . . + + i X.X.........{ % +     $ Y ~ [ ~ ~ ~ ~ ~ ~ Y R R R I T I I R R R R I I N A ",
"Z A A A G T I I T T I T T I I I R R T T I I I I R ~ ~ ~ ~ ~ ~ Y ~ ~ Y K Y 6 5 1 5 5 {  .X.X.X...o.} 6 2 1 1 5 K P Y Y ~ ~ ~ ~ Y Y R R R T I T R R R R R I F A A ",
"A Z A A G T T T T T T T T T T I R R T T T T T T Y ~ Y Y ~ ~ Y ~ ~ ~ K # + { } } | | o.@.@.@.@.+.+.O.| } | | s O O 6 ~ Y ~ ~ ~ ~ Y R I I I I I T I I R T I I A A ",
"A A A A G T I T T T T T I I I T R R T T I T T I ' ~ ~ ~ Y [ ~ ~ Y ~ J # # u | | X.X.O.@.@.@.@.+.+.+.....| | { * X J ~ ~ Y ~ ~ Y R R I R I T I I T I R I I I A A ",
"A S G G I T I I I T T I I T T T I I I I T R ^ U ! ! ! ! ! ! ! ! 5 ; 6 { i } O.#.*.*.*.=.&.#.@.+.+.+.O.o.b b z p p 8 = : E ! ! ! ~ Y [ Y R R I I I I I D A S A A ",
"A S I I I I I I I I I I I I I R I I I I I I ! ! ! ! ! ! ! ! ! E ; + 1 } } | o.#.-.-.-.-.=.#.@.@.O.O.O.O.X.v v l l r . # E ! ! ! ~ ~ Y Y R R R R I I I S A A A A ",
"Z S I I I I I I I R R _ R R [ _ R I I I I I / ~ ! ! ! ! ! ! ! ! ;   1 } } o.O.$.-.-.-.-.=.#.#.@.O.+.O.+.o.b b l v r . $ E ! ! ! ~ Y [ Y R R R R I I I S A A A A ",
"A S I I I I I T I _ [ [ [ [ [ [ [ R I I I U Y ! ! ~ ! ! ! ! ! ! ; + 3 } } o.#.$.-.-.-.-.=.*.*.$.+.+.+.O.O.O.O.v v r . # E ! ! ! ~ ~ Y Y R R R R I I I D A A A A ",
"A S T T T T T T I _ ] [ [ [ [ [ ] I I I I I Y ! ! ! ! ! ! ! ! E ; + 1 } } +.#.$.=.=.-.=.=.*.*.$.+.O.O.+.+.+.o.v b r   $ E ! ! ! Y [ ~ [ I I I I I I I S A A A A ",
"A S I I R ` _ _ _ ] [ [ [ [ [ [ [ ` ` _ I U ! ! ! ! ! ! ! ! ! ! ; + 3 } } +.@.$.%.%.*.=.*.*.*.$.O.@.+.@.O.+.O.v c 9 + $ E ! ! ! ~ ~ Y Y I I I I I S S A A A A A ",
"A S I I _ [ [ [ [ [ [ [ [ [ [ [ [ [ ' _ U U ! Y ! ! ! ! ! ! ! ! - + 3 } } +.+.@.@.+.%.*.*.*.*.#.@.O.@.O.+.+.O.v c r . $ L ~ ! ! Y ~ Y Y I I I I D A A A A A A A ",
"Z A I I ] [ [ [ [ [ [ [ [ [ [ [ [ [ [ R U U Q ! ! ! ! ! ! ! ! ! -   1 } } o.@.@.+.+.$.&.&.&.%.@.O.@.O.O.O.O.o.v c r . $ E ! ~ ! [ Y Y U I I I I I A A S S A A A ",
"A S I I R ] ' [ [ [ [ [ [ [ [ [ [ [ [ _ I U ! ~ Q ! ! ! ! ! ! ! ;   3 l z o.@.@.+.+.+.+.+.+.+.+.O.O.O.O.X.....c ..e . # L ! ! ! Y ~ ~ R R R I I I I I I I D Z A ",
"A S T G _ ' [ [ [ [ [ [ [ [ [ [ [ [ [ _ I U ! ! ! ! ! ! ! ! ! ! ;   1 | } O.@.+.+.+.+.+.+.O.O.+.O.O.O.O.X.....b ..r . # Y ! ! ! ~ ~ ~ Y R R I I I I I I I I A A ",
"A S T I R R R [ [ [ [ [ [ [ [ [ [ [ [ _ T U R U ^ Q ! ! ! ! ~ Q = + 1 k k | ..o.+.+.O.+.O.O.O.O.O.O.o.O...v l l l 0 . # Y ! ! ! Y ~ [ Y R R U U I I I I I G A A ",
"Z S I I R R R [ [ [ [ [ [ [ [ [ [ [ [ ' I I I I ^ ! ! ! ! ! ! Q - + 3 h j l l | +.+.+.O.+.O.O.O.O.O.o.o.v k x j k 4 . # P ~ ! ! ~ ~ ~ R R R U U I I I I I F Z A ",
"A S I I T T R ` ' ' ' _ _ ' ' ' ] ' _ _ I I I I ^ ! ! ! ! ! ! ! > $ 1 u a k l | O.O.O.+.+.O.O.O.O.o.b o.c k k a a 4 $ - Y ~ ! ! Y Y [ Y I I I I I I I I I F Z A ",
"A A I T T T T T T I I T T R I R I R I I I I I I U ! ! ! ! ! ! ! Y Y K & * y k l b b o.O.+.O.+...b b k x k j a * % < Y Q ! ! ! ! Y R R R I I I I I I I I I G A A ",
"A S T T T I T T I I I I I I I I I I U I I I I U W Q ! ! ! ! ! ! ~ ~ L + @ y k x c b o.O.O.+.O...b b x x x x a O . , ! ~ ! ! ! ! Y R I I I I I I I I I I I I A A ",
"A A F G G I T T I I I I I I I I T I I I I I T U U W W ^ ! ! ! ! ~ ~ Y B < 7 4 4 e e g b b b b c x d 0 8 0 4 7 < , K ! ! ! ! ! ! R I I I I I I I I I I D G S A A ",
"A A A A F I I I I I I I I I I U T I I I I I I I I I U ^ ! ! ! ! ! ! ! / / ;       o w k k j j k k u o o     # Q / ! ! ! ! ! ! ! Y R R T T T I I I I I A A N A A ",
"A A A A I I I T I I I I I I T R R U R R R R U I I U U ^ / ! Q ! ! ! ! ! Q : $ $ X o q d s s s s d y o X # # = E ! ! ! ! ! ! ! / Y U R R T T I I I I T A A A A A ",
"A A A A G I I I I T T I R R R [ [ ' [ [ [ ' R I I I I U U W ^ ! ~ ! ! ! ! Q E V X   $ * * * * * * & o X < E E ! ! ! ! ! ! / W W I U R R T I T T T T T S A A A A ",
"A A A A I U I I I I I I I R R [ [ [ [ [ [ ' U I I I I I U U ! Q ! / ! ! ! Q ~ J @   + @       X @ @     < ! ! ! ! ! ! ! / Q W W I T T R T T T I I T T S A A A A ",
"A A F G I I I R R R ` R R ` ' [ [ [ [ [ [ ] _ _ U I I I I W ^ W Q / ! ! ! ! ! L < < < < < < < < < < < < E ! ! Q Q ! / / W W W I R R R R R [ R R R T T I F F A A ",
"A S I I I I I R R R [ [ [ [ [ [ [ [ [ [ [ [ ' [ _ I I T I T I U W ! / / / / ! ! / / ! ! ! ! ! ! ~ / ! ! ! ! / ! / ! Q / W H H W R R I R [ [ [ [ R T T T T F A A ",
"A A I I I I I R R ' [ ' [ [ [ [ [ [ [ [ [ [ [ [ _ U T I I I T I W ^ ! ! / Q ! / / ! ! ! Q ! ! ! / ! ! ! ! ! ! / ! / ^ ^ ) H ) H R R R R [ [ [ [ R R R R T F A A ",
"A S I I I I I R ' ' [ ' ' [ [ [ [ [ [ [ [ [ [ ] _ R I I T T I I W W I W W Q Q ! / ! ~ ! ! ! ! ! / ! ! ! / ! / W W W I W T ) H W R [ [ [ [ [ [ [ [ ' R R T I A A ",
"A A I I T T R ' [ [ [ [ ' [ ' [ [ [ [ [ [ [ ] [ _ ) I I I I I I T H I I I ^ / Q / ! ! / Q ! ! ! / ! ! ! ! ! ! I H H ) H ) H ) H R [ [ [ [ [ [ [ [ [ ' R T G A A ",
"A A I I T T R ' [ [ [ [ [ [ ' [ [ [ [ [ [ [ _ _ ) I I I I I I I H ) T H I W W ^ W W ^ ^ ^ Q W W ^ ^ ^ W ^ ^ W I H W H W H ) H ) R [ [ [ [ [ [ [ [ ' ' R I I A A ",
"A A G I T I R [ [ [ [ [ [ [ [ [ [ [ [ [ [ ] R I I I I I I I T T ) H ) I I I I W I W I I W T H ) I I T T W T I H ) H H H T ) T T R [ [ [ [ [ [ [ [ ' [ R I F A A ",
"A A I I I I R R [ [ ' ' [ [ [ ' [ [ [ [ [ [ I I I I I I I I I T T T H T I I I I I I I ) H ) ) H W I I I T H I I H ) ) T H H T T R [ [ R [ [ [ [ [ [ R T T G A A ",
"A S T T I I I T R R R R ' [ ' ' [ [ [ ` ) ) I I I I I I I T T I I I H S D D D D D D D D D D D D S D D D D D D D D H I I T I I I T R T R R T T T R R R T T G A A ",
"A A I T T T I I T T R R ' [ ' [ [ [ [ _ I I U I I I I I T T T I W I G A A A A A A A A A A S A A A A A A A A A A A F I T T I I I I T T I T T T I T T T T T G A A ",
"A A I F T T T T T T T R [ R ' R _ _ _ ) I T I I I I I I T H G G G G F S A A A A A A A S A A A A S A A A A A A A A F H H H H H I I F I I T T I I I T T T I S A A ",
"A A A A F T T T T T R T R T T R I I I I I I I I I I I I ) G A A S A A A A A A A A A A A A A A A A A A A A A A A A A A A A A F I I I I I I I I G I T T A A A A A ",
"A A A A I I I I I I I I I T T T I T I T T T T I I I I I I G A A A A S A A A A A A A A A A A A A A A A A A A A A A A A A A A F T I T T T T T I I I I I A A A A A ",
"A A A A I I I I I I I T I I T T I I T I R R T I I T I I I I I I G T G A A A A A A A A A A A A A A A A A A A A A A G T T I T T T T _ ] [ ] ] R I I I I A A A A A ",
"A A A A S I I I I I I T I I I T R R T I R R R R I I I I I I I I T T H A A A A A A A A A A A A A A A A A A A A S A G I I T T T T R [ [ [ [ [ R R T T I S A A A A ",
"A A F F I I I I I I I T I I T R R R R R R R R R T I I I I I I I T T H S S F F F F F F F S F F F S F F S F F F F S F I T T R R ` R [ [ [ [ ] ' _ R T I F F S A A ",
"A A I I I I I I R R T T T R [ [ [ [ [ [ [ [ [ [ R R R R I I I I T T T H H T T T T T T T T T T T I I G I T I I I G T T T [ [ [ [ [ [ [ [ [ [ [ [ _ T T I I F A A ",
"A A I I I I I I R R T T T R [ [ [ [ [ [ [ [ [ [ R R R R I I I T H T T T T T T T T T T T T T R R I I I I T T I I T T T T [ [ [ [ [ [ [ [ [ [ [ [ R I T I I I A S ",
"A A I I I I I I R R [ R R [ [ [ [ [ [ [ [ [ [ [ [ [ R R I I I I T T T T T T T R R ' ' ' ' ' ' R I I I I I I I I T T T R [ [ [ [ [ [ [ [ [ [ R R T I I I I G A A ",
"A D I I I I I I R R [ [ [ [ [ [ [ [ [ [ [ [ [ [ [ [ R R I I I R T T T H T T R R [ [ ' [ ' ' [ R I I I I I I I I T T T R ` [ [ [ [ [ [ [ [ ] R T I I I I I G A A ",
"A A I I I I I I I T R R R R [ [ [ [ [ [ [ [ R R [ R R R R R I R T T T T T T ] R [ [ [ [ [ [ [ R T R T T T I G T I I T T R ` ` R ] ] ` ` R _ T T T I T G I S Z Z ",
"A A A N G I I I I I R R T R R [ [ [ [ [ [ [ R T R R I R R R I I T T T H R R [ [ [ [ [ [ [ [ [ [ R ' T T I I T T I T I I T T T T R T T T T T T T T T T S A Z m n ",
"A A A A I I I I T I T T R R R R [ [ [ [ [ [ R I R R R I I I I I T T T T R R [ [ [ [ [ [ [ [ R [ [ R T I T T T T T T I T T T T T T T I T T T T T T T I A A N n n ",
"N A A A S S F I I I T T R R R T R R R R R R I I R R R R I I D F F F F T T R R R R R R [ R R R R R R I T T T T S D S S A S S G T I T I I T T T T G D S M M m n n ",
"A A A A A A S I T I I I I I T T R T T T I I I I I I I I I G A A A S F T T T T T R T T T I I I T R R T T T T T A A A A A A A G T T T T T T T T T F A Z m n m n n ",
"N N A A A A S G F I G I G G G I R I G G I G G G G G G G G S A A A A S G G G F G T G G F G G G G G I G G G F G A A A A A A A F G G F G H G G F F S Z C m m n n n ",
"n n A N A A A A A A A A A A A A A A A A A A A A A A A A A A A A A A A A A A A A A A A A A A A A A A A A A A A A A A A A Z A A A A A A A A A A A C n n n n n n m ",
"n n N N N N N Z A A A A A A A A A A A A A A A A A A A A A A A A A A A A C C C N C N N C Z N Z A A A A A A A A A A A A Z A A A A S A A A A A A A N N m n n n n n "
};
