/* XPM */
static char *1[] = {
/* columns rows colors chars-per-pixel */
"64 48 257 2",
"   c #000000",
".  c #0E0A03",
"X  c #090300",
"o  c #00001E",
"O  c #190D00",
"+  c #130D04",
"@  c #1C130A",
"#  c #171816",
"$  c #00002B",
"%  c #2E0E00",
"&  c #261B0A",
"*  c #291E12",
"=  c #380000",
"-  c #2C2114",
";  c #3F2607",
":  c #372309",
">  c #342718",
",  c #352818",
"<  c #3D2F1E",
"1  c #432B0F",
"2  c #492C0D",
"3  c #41250A",
"4  c #402E14",
"5  c #463018",
"6  c #4A341A",
"7  c #453014",
"8  c #512E07",
"9  c #5E3A0D",
"0  c #583209",
"q  c #533512",
"w  c #5A3713",
"e  c #5D3B14",
"r  c #593B18",
"t  c #473722",
"y  c #533B22",
"u  c #593E20",
"i  c #6A3C00",
"p  c #603F15",
"a  c #5B4324",
"s  c #5C4B3D",
"d  c #66420E",
"f  c #644316",
"g  c #65451B",
"h  c #6E4B1A",
"j  c #744C1C",
"k  c #624623",
"l  c #644922",
"z  c #65492A",
"x  c #6C4B25",
"c  c #6C4E2A",
"v  c #6A4724",
"b  c #664E34",
"n  c #685025",
"m  c #6B522B",
"M  c #6C5232",
"N  c #704C25",
"B  c #714E29",
"V  c #745225",
"C  c #75522B",
"Z  c #73592E",
"A  c #7D562C",
"S  c #7B5A2C",
"D  c #7A5525",
"F  c #725533",
"G  c #75573A",
"H  c #765833",
"J  c #775B3B",
"K  c #7B5730",
"L  c #7C5A33",
"P  c #7B5B3B",
"I  c #7F603E",
"U  c #74603C",
"Y  c #695847",
"T  c #7F6840",
"R  c #7A654C",
"E  c #7B6750",
"W  c #814D0B",
"Q  c #8D5613",
"!  c #8D5B1F",
"~  c #95560D",
"^  c #945916",
"/  c #955E1B",
"(  c #9A5C13",
")  c #80572D",
"_  c #825D2B",
"`  c #895D2C",
"'  c #865921",
"]  c #835E34",
"[  c #825F3A",
"{  c #8A5F33",
"}  c #995A2D",
"|  c #85602E",
" . c #8F6127",
".. c #89612D",
"X. c #856335",
"o. c #85623B",
"O. c #8B6335",
"+. c #8B643B",
"@. c #8F6935",
"#. c #8C693D",
"$. c #84693C",
"%. c #936523",
"&. c #9B6222",
"*. c #9E6D2A",
"=. c #9B6429",
"-. c #946B34",
";. c #936B3C",
":. c #9A6E36",
">. c #9B6D3D",
",. c #916535",
"<. c #9F702F",
"1. c #9B723D",
"2. c #93713E",
"3. c #A46014",
"4. c #A4631A",
"5. c #A8661C",
"6. c #A46520",
"7. c #AD6B25",
"8. c #A4692C",
"9. c #A36D32",
"0. c #A37134",
"q. c #A5723B",
"w. c #A77839",
"e. c #AC7A38",
"r. c #B1662E",
"t. c #B7772F",
"y. c #B37F3F",
"u. c #825F40",
"i. c #856444",
"p. c #866A44",
"a. c #8A6643",
"s. c #8C6B43",
"d. c #8E6E4E",
"f. c #86684D",
"g. c #876850",
"h. c #8F6E51",
"j. c #8F7244",
"k. c #8C714D",
"l. c #8F7057",
"z. c #86765C",
"x. c #936D42",
"c. c #926E4C",
"v. c #996D41",
"b. c #937345",
"n. c #93714B",
"m. c #9C7345",
"M. c #9C7549",
"N. c #9C7A45",
"B. c #9E7C4C",
"V. c #947C4A",
"C. c #977552",
"Z. c #967D5F",
"A. c #9C7551",
"S. c #9A7B54",
"D. c #8F7D66",
"F. c #A57440",
"G. c #A17C47",
"H. c #A37B4C",
"J. c #AD7D42",
"K. c #AB7C4B",
"L. c #A47E52",
"P. c #A97E51",
"I. c #9F814B",
"U. c #9D8152",
"Y. c #A4824B",
"T. c #AB8A4E",
"R. c #A9864D",
"E. c #A78154",
"W. c #A78951",
"Q. c #AB8254",
"!. c #AB855B",
"~. c #AC8B51",
"^. c #AE8E5F",
"/. c #A1805A",
"(. c #B58448",
"). c #B18655",
"_. c #B38F56",
"`. c #B58B5F",
"'. c #BC8E55",
"]. c #B98E5C",
"[. c #B79057",
"{. c #BC9052",
"}. c #BD9159",
"|. c #B4905C",
" X c #AC8A66",
".X c #AE9269",
"XX c #B38C62",
"oX c #BC9264",
"OX c #B9936B",
"+X c #B59068",
"@X c #B99A74",
"#X c #FFB81F",
"$X c #C78E47",
"%X c #C79756",
"&X c #C3965A",
"*X c #D09C58",
"=X c #C49B63",
"-X c #CB9F6A",
";X c #C69964",
":X c #C49D71",
">X c #CAA479",
",X c #C4A17B",
"<X c #DCA865",
"1X c #D0A374",
"2X c #D5AC7A",
"3X c #DBAC76",
"4X c #DEB07A",
"5X c #E2AD68",
"6X c #E6B46D",
"7X c #EBB164",
"8X c #E7B67C",
"9X c #F0BD76",
"0X c #F9C77E",
"qX c #F2C17A",
"wX c #8B8287",
"eX c #BCA181",
"rX c #D9B383",
"tX c #D2B182",
"yX c #C6AE8D",
"uX c #E7B780",
"iX c #E0BD8F",
"pX c #E9BF91",
"aX c #F0BF8A",
"sX c #D9CBB5",
"dX c #E4C694",
"fX c #E8C898",
"gX c #F7C882",
"hX c #F8CB88",
"jX c #F8CE93",
"kX c #FCD28D",
"lX c #FDD692",
"zX c #E1CAA8",
"xX c #E8D3A8",
"cX c #ECD7B6",
"vX c #F7D7A3",
"bX c #FEE2A6",
"nX c #F3E7BF",
"mX c #FCE6B2",
"MX c #FEEDBB",
"NX c #FFECB4",
"BX c #DDCCC0",
"VX c #E5DDCB",
"CX c #F0DDC8",
"ZX c #EFE2C3",
"AX c #EDE4DB",
"SX c #F0E6C9",
"DX c #F0E6D6",
"FX c #FEF4CB",
"GX c #FCF4DA",
"HX c #F5ECE4",
"JX c #F6F0E1",
"KX c #FBF5E1",
"LX c #FEFBE4",
"PX c #FAF8EC",
"IX c #FFFEF5",
"UX c #FFFFFE",
"YX c None",
/* pixels */
"YXYXYXYXYXYXYXYXYXYXYXYXYXYXYXYXYXYXYXYXYXYXYXYXYXYXYXYXYXYXYXYXYXYXYXYXYXYXYXYXYXYXYXYXYXYXYXYXYXYXYXYXYXYXYXYXYXYXYXYXYXYXYXYX",
"YXYXYXYXYXYXYXYXYXYXYXYXYXYXYXYXYXYXYXYXYXYXYXYXYXYXYXYXYXYXYXYXYXYXYXYXYXYXYXYXYXYXYXYXYXYXYXYXYXYXYXYXYXYXYXYXYXYXYXYXYXYXYXYX",
"YXYXYXYXYXYXYXYXYXYXYXYXYXYXYXYXYXYXYXYXYXYXYXYXYXYXYXYXYXYXYXYXYXYXYXYXYXYXYXYXYXYXYXYXYXYXYXYXYXYXYXYXYXYXYXYXYXYXYXYXYXYXYXYX",
"YXYXYXYXYXYXYXYXYXYXYXYXYXYXYXYXYXYXYXYXYXYXYXYXYXYXYXYXp r r YXYXYXYXYXYXYXYXYXYXYXYXYXYXYXYXYXYXYXYXYXYXYXYXYXYXYXYXYXYXYXYXYX",
"YXYXYXYXYXYXYXYXYXYXYXYXYXYXYXYXYXYXYXYXYXYXYXYXYXYXYXYXw w w v YXYXYXYXYXYXYXYXYXYXYXYXYXYXYXYXYXYXYXYXYXYXYXYXYXYXYXYXYXYXYXYX",
"YXYXYXYXYXYXYXYXYXYXYXYXYXYXYXYXYXYXYXYXYXYXYXYXYXYXYXYX2 0 q q YXYXYXYXYXYXYXYXYXYXYXYXYXYXYXYXYXYXYXYXYXYXYXYXYXYXYXYXYXYXYXYX",
"YXYXYXYXYXYXYXYXYXYXYXYXYXYXYXYXYXYXYXYXYXYXYXYXYXYXYXYX2 g 3 1 YXYXYXYXYXYXYXYXYXYXYXYXYXYXYXYXYXYXYXYXYXYXYXYXYXYXYXYXYXYXYXYX",
"YXYXYXYXYXYXYXYXYXYXYXYXYXYXYXYXYXYXYXYXYXYXYXYXYXYXYXYXq r 2 1 YXYXYXYXYXYXYXYXYXYXYXYXYXYXYXYXYXYXYXYXYXYXYXYXYXYXYXYXYXYXYXYX",
"YXYXYXYXYXYXYXYXYXYXYXYXYXYXYXYXYXYXYXYXYXYXYXYXYXYXYX{ D j ' e.(.YXYXYXYXYXYXYXYXYXYXYXYXYXYXYXYXYXYXYXYXYXYXYXYXYXYXYXYXYXYXYX",
"YXYXYXYXYXYXYXYXYXYXYXYXYXYXYXYXYXYXYXYXYXYXYXwXc.u.B C N j _ (.v.c.!.A.k.YXYXYXYXYXYXYXYXYXYXYXYXYXYXYXYXYXYXYXYXYXYXYXYXYXYXYX",
"YXYXYXYXYXYXYXYXYXYXYXYXYXYXYXYXYXYXYXYXYXYXc.c.c.c.u.u.a.o.H a.A.A.A.C.C.S.YXYXYXYXYXYXYXYXYXYXYXYXYXYXYXYXYXYXYXYXYXYXYXYXYXYX",
"YXYXYXYXYXYXYXYXYXYXYXYXYXYXYXYXYXYXYXYXYXYXP [ v.v.;.x.v.x.+.N. X@XyXoXs.p.YXYXYXYXYXYXYXYXYXYXYXYXYXYXYXYXYXYXYXYXYXYXYXYXYXYX",
"YXYXYXYXYXYXYXYXYXYXYXYXYXYXYXYXYXYXYXYXYXYXa V ' ( ( Q | g g V @.;X=X$.l m YXYXYXYXYXYXYXYXYXYXYXYXYXYXYXYXYXYXYXYXYXYXYXYXYXYX",
"YXYXYXYXYXYXYXYXYXYXYXYXYXYXYXYXYXYXYXYXYXYXk V ' ~ ~ W 9 & : 9 d *.2.g g m YXYXYXYXYXYXYXYXYXYXYXYXYXYXYXYXYXYXYXYXYXYXYXYXYXYX",
"YXYXYXYXYXYXYXYXYXYXYXYXYXYXYXYXYXYXYXYXYXYXx { } ( ( Q h : ; 9 h e.:.Z V S YXYXYXYXYXYXYXYXYXYXYXYXYXYXYXYXYXYXYXYXYXYXYXYXYXYX",
"YXYXYXYXYXYXYXYXYXYXYXYXYXYXYXYXYXYXYXYXYXYXA ,.( ( 3.( ! q e f f 1.{.-.S X.$.YXYXYXYXYXYXYXYXYXYXYXYXYXYXYXYXYXYXYXYXYXYXYXYXYX",
"YXYXYXYXYXYXYXYXYXYXYXYXYXYXYXYXYXYXYXYXYXYXS ,.&.( 3.3.%.f f h q Z 6X%XS X.N.YXYXYXYXYXYXYXYXYXYXYXYXYXYXYXYXYXYXYXYXYXYXYXYXYX",
"YXYXYXYXYXYXYXYXYXYXYXYXYXYXYXYXYXYXYXYXYXYX{ -.&.4.3.( %.h f D n 2.qX6X@.$.Y.YXYXYXYXYXYXYXYXYXYXYXYXYXYXYXYXYXYXYXYXYXYXYXYXYX",
"YXYXYXYXYXYXYXYXYXYXYXYXYXYXYXYXYXYXYXYXYXb O.:.6.5.( ^ *.D D S | [.kXqX:.| Y.YXYXYXYXYXYXYXYXYXYXYXYXYXYXYXYXYXYXYXYXYXYXYXYXYX",
"YXYXYXYXYXYXYXYXYXYXYXYXYXYXYXYXYXYXYXYXYXC O.:.6.5.4./ <._ ` X.S ~.lXgXe.S I.YXYXYXYXYXYXYXYXYXYXYXYXYXYXYXYXYXYXYXYXYXYXYXYXYX",
"YXYXYXYXYXYXYXYXYXYXYXYXYXYXYXYXYXYXYXYXYXK +.0.6.5.5./ <.| ..| | [.lXhX(._ G.YXYXYXYXYXYXYXYXYXYXYXYXYXYXYXYXYXYXYXYXYXYXYXYXYX",
"YXYXYXYXYXYXYXYXYXYXYXYXYXYXYXYXYXYXYXYXYX[ >.q.&.4.5.%.w.-.X.X.X.|.bXlX*XA N.U.YXYXYXYXYXYXYXYXYXYXYXYXYXYXYXYXYXYXYXYXYXYXYXYX",
"YXYXYXYXYXYXYXYXYXYXYXYXYXYXYXYXYXYXYXYXYX] >.9.6.7.*. .(.-.+.X.$._.MXbX5X..2.T.YXYXYXYXYXYXYXYXYXYXYXYXYXYXYXYXYXYXYXYXYXYXYXYX",
"YXYXYXYXYXYXYXYXYXYXYXYXYXYXYXYXYXYXYXYXP [ F.8.7.t.1.-.(.#.X.X.2..XFXNXqXq.X.T.YXYXYXYXYXYXYXYXYXYXYXYXYXYXYXYXYXYXYXYXYXYXYXYX",
"YXYXYXYXYXYXYXYXYXYXYXYXYXYXYXYXYXYXYXYX[ +.>.8.7.q.s.F.'.X.o.x.V..XKXFXgXJ.S R.$ YXYXYXYXYXYXYXYXYXYXYXYXYXYXYXYXYXYXYXYXYXYXYX",
"YXYXYXYXYXYXYXYXYXYXYXYXYXYXYXYXYXYXYXYX[ ;.F.8.=.x.P ].&XN.G.E.L..XJXLXlX%Xx Y.~.YXYXYXYXYXYXYXYXYXYXYXYXYXYXYXYXYXYXYXYXYXYXYX",
"YXYXYXYXYXYXYXYXYXYXYXYXYXYXYXYXYXYXYXG [ >.q.9.` p.J -X}.M.N.M.E.@XKXIXbX<XZ 2.~.YXYXYXYXYXYXYXYXYXYXYXYXYXYXYXYXYXYXYXYXYXYXYX",
"YXYXYXYXYXYXYXYXYXYXYXYXYXYXYXYXYXYXYXP { m.F.q.] S.p.*X].b.M.L.+XtXKXUXFX9X1.L W.V.YXYXYXYXYXYXYXYXYXYXYXYXYXYXYXYXYXYXYXYXYXYX",
"YXYXYXYXYXYXYXYXYXYXYXYXYXYXYXYXYXYXg.[ +.K.F.q.X.s.K '.E.M.H.Q.-XfXKXUXGXhX].m Y.W.YXYXYXYXYXYXYXYXYXYXYXYXYXYXYXYXYXYXYXYXYXYX",
"YXYXYXYXYXYXYXYXYXYXYXYXYXYXYXYXYXYXa.+.F.K.>.>.#.J B '.Q.H.P.`.8XmXIXUXLXvX3XH M.~.n.YXYXYXYXYXYXYXYXYXYXYXYXYXYXYXYXYXYXYXYXYX",
"YXYXYXYXYXYXYXYXYXYXYXYXYXYXYXYXYXJ [ o.H.K.{ ] C C A &X).E.).;XuXMXUXUXIXMXjXE.X.Y.b.YXYXYXYXYXYXYXYXYXYXYXYXYXYXYXYXYXYXYXYXYX",
"YXYXYXYXYXYXYXYXYXYXYXYXYXYXYXYX= [ i.o.v.+.) B v x A Q.G.M.P.XX1XfXVXAXDXxXrXoXH s.B.s.YXYXYXYXYXYXYXYXYXYXYXYXYXYXYXYXYXYXYXYX",
"YXYXYXYXYXYXYXYXYXYXYXYXYXYXYXYX[ K ) a.m.{ B B N B ] H.x.x.A.L.OXtXsXAXPXSXdXrXn.#.H.].YXYXYXYXYXYXYXYXYXYXYXYXYXYXYXYXYXYXYXYX",
"YXYXYXYXYXYXYXYXYXYXYXYXYXYXYXo.[ { +.A { K B v B B ] v.c.M.c.L.XX>XyXsXBXzXdX2XL.Q.=X=X-XYXYXYXYXYXYXYXYXYXYXYXYXYXYXYXYXYXYXYX",
"YXYXYXYXYXYXYXYXYXYXYXYXYXYXg.] { { +.v.v.{ ] B K [ v.M.M.L.P.XX+X2XZXPXCXcXmXrX+XP.Q.=X-X!.YXYXYXYXYXYXYXYXYXYXYXYXYXYXYXYXYXYX",
"YXYXYXYXYXYXYXYXYXYXYXYXYXc.n.o.a.{ m.v.,.C ] L B B [ H.P.P.L.;X1X2XxXGXcXGXvXfXpX2XQ.oXoXW.S.YXYXYXYXYXYXYXYXYXYXYXYXYXYXYXYXYX",
"YXYXYXYXYXYXYXYXYXYXYXYXYXi.#.s.v.+.M.v.{ B { { B B a.H.P.P.Q.oX-XuXrXcXzXSXzX:X>X>XoX).!.B.V.YXYXYXYXYXYXYXYXYXYXYXYXYXYXYXYXYX",
"YXYXYXYXYXYXYXYXYXYXYXYXYX$ a c ] x.v.;.] ) P ] L L +.x.x.M.H.L.!.!.XXOX X@X:X:X>X:X`.s.m l m YXYXYXYXYXYXYXYXYXYXYXYXYXYXYXYXYX",
"YXYXYXYXYXYXYXYXYXYXYXYXYXYXYXX & 4 5 5 t 5 6 t u v M M M J P i.f.c.Z.Z.R E D.D.R J y : O   YXYXYXYXYXYXYXYXYXYXYXYXYXYXYXYXYXYX",
"YXYXYXYXYXYXYXYXYXYXYXYXYXYXYXYXYXYXYXX   X & & * > > > - * - - < t t , @ . X     YXYXYXYXYXYXYXYXYXYXYXYXYXYXYXYXYXYXYXYXYXYXYX",
"YXYXYXYXYXYXYXYXYXYXYXYXYXYXYXYXYXYXYXYXYXYXYXYXYXYXYXYXYXYXYXYXYXYXYXYXYXYXYXYXYXYXYXYXYXYXYXYXYXYXYXYXYXYXYXYXYXYXYXYXYXYXYXYX",
"YXYXYXYXYXYXYXYXYXYXYXYXYXYXYXYXYXYXYXYXYXYXYXYXYXYXYXYXYXYXYXYXYXYXYXYXYXYXYXYXYXYXYXYXYXYXYXYXYXYXYXYXYXYXYXYXYXYXYXYXYXYXYXYX",
"YXYXYXYXYXYXYXYXYXYXYXYXYXYXYXYXYXYXYXYXYXYXYXYXYXYXYXYXYXYXYXYXYXYXYXYXYXYXYXYXYXYXYXYXYXYXYXYXYXYXYXYXYXYXYXYXYXYXYXYXYXYXYXYX",
"YXYXYXYXYXYXYXYXYXYXYXYXYXYXYXYXYXYXYXYXYXYXYXYXYXYXYXYXYXYXYXYXYXYXYXYXYXYXYXYXYXYXYXYXYXYXYXYXYXYXYXYXYXYXYXYXYXYXYXYXYXYXYXYX",
"YXYXYXYXYXYXYXYXYXYXYXYXYXYXYXYXYXYXYXYXYXYXYXYXYXYXYXYXYXYXYXYXYXYXYXYXYXYXYXYXYXYXYXYXYXYXYXYXYXYXYXYXYXYXYXYXYXYXYXYXYXYXYXYX",
"YXYXYXYXYXYXYXYXYXYXYXYXYXYXYXYXYXYXYXYXYXYXYXYXYXYXYXYXYXYXYXYXYXYXYXYXYXYXYXYXYXYXYXYXYXYXYXYXYXYXYXYXYXYXYXYXYXYXYXYXYXYXYXYX",
"YXYXYXYXYXYXYXYXYXYXYXYXYXYXYXYXYXYXYXYXYXYXYXYXYXYXYXYXYXYXYXYXYXYXYXYXYXYXYXYXYXYXYXYXYXYXYXYXYXYXYXYXYXYXYXYXYXYXYXYXYXYXYXYX",
"YXYXYXYXYXYXYXYXYXYXYXYXYXYXYXYXYXYXYXYXYXYXYXYXYXYXYXYXYXYXYXYXYXYXYXYXYXYXYXYXYXYXYXYXYXYXYXYXYXYXYXYXYXYXYXYXYXYXYXYXYXYXYXYX"
};
