/* XPM */
static char *1[] = {
/* columns rows colors chars-per-pixel */
"64 43 256 2",
"   c #010003",
".  c #04050B",
"X  c #07080D",
"o  c #090407",
"O  c #0C0609",
"+  c #0A0A0D",
"@  c #0D0802",
"#  c #060910",
"$  c #0B0D13",
"%  c #020312",
"&  c #0E1016",
"*  c #0F1219",
"=  c #130B0D",
"-  c #13080A",
";  c #140E12",
":  c #1A0E11",
">  c #1B120C",
",  c #121215",
"<  c #13151B",
"1  c #16181E",
"2  c #1B1214",
"3  c #1A1A1E",
"4  c #1C151A",
"5  c #151A22",
"6  c #1B1D23",
"7  c #181D27",
"8  c #1E2026",
"9  c #1C222B",
"0  c #15202D",
"q  c #1C2936",
"w  c #1B2736",
"e  c #251907",
"r  c #231314",
"t  c #221619",
"y  c #241A1C",
"u  c #2B1D1E",
"i  c #291715",
"p  c #371D1B",
"a  c #2D1D21",
"s  c #201F22",
"d  c #321E24",
"f  c #2B241B",
"g  c #37231D",
"h  c #36280B",
"j  c #232225",
"k  c #22252B",
"l  c #26292F",
"z  c #2C2121",
"x  c #2C2829",
"c  c #252B34",
"v  c #232D3B",
"b  c #2A2C32",
"n  c #282C36",
"m  c #2D3037",
"M  c #2E323C",
"N  c #25303E",
"B  c #352225",
"V  c #352529",
"C  c #352B2B",
"Z  c #3C2522",
"A  c #3B252A",
"S  c #3C2C2C",
"D  c #3C2A24",
"F  c #362D35",
"G  c #3C312C",
"H  c #353234",
"J  c #3C333C",
"K  c #373538",
"L  c #1D3146",
"P  c #293748",
"I  c #2B3E51",
"U  c #343C4A",
"Y  c #3C3D44",
"T  c #363843",
"R  c #2C425B",
"E  c #3A424E",
"W  c #364457",
"Q  c #3A526B",
"!  c #334A63",
"~  c #401617",
"^  c #462B06",
"/  c #46251A",
"(  c #5A3906",
")  c #49380F",
"_  c #40272E",
"`  c #432A26",
"'  c #432B2C",
"]  c #4A2E2D",
"[  c #422522",
"{  c #432C30",
"}  c #4B2F32",
"|  c #4C322C",
" . c #473428",
".. c #443433",
"X. c #4B3434",
"o. c #4A3A35",
"O. c #4D3B39",
"+. c #443938",
"@. c #52372C",
"#. c #523433",
"$. c #533C3C",
"%. c #5B3C33",
"&. c #5C3C3A",
"*. c #553735",
"=. c #643C39",
"-. c #433A45",
";. c #593E40",
":. c #4C402C",
">. c #55423D",
",. c #5C4436",
"<. c #5D503F",
"1. c #514731",
"2. c #7C5805",
"3. c #755C14",
"4. c #6E4810",
"5. c #674929",
"6. c #63423C",
"7. c #664539",
"8. c #704D24",
"9. c #75583A",
"0. c #6D5732",
"q. c #776017",
"w. c #74623B",
"e. c #494347",
"r. c #484A56",
"t. c #4F505C",
"y. c #5C4342",
"u. c #5C4C4E",
"i. c #564645",
"p. c #564E53",
"a. c #5B534D",
"s. c #585359",
"d. c #405A75",
"f. c #415C79",
"g. c #575964",
"h. c #455368",
"j. c #624644",
"k. c #644947",
"l. c #654A4A",
"z. c #6B4643",
"x. c #6D4A43",
"c. c #6A4D4D",
"v. c #624648",
"b. c #6C4F50",
"n. c #6C534E",
"m. c #675649",
"M. c #6E5251",
"N. c #685A57",
"B. c #734C44",
"V. c #734D49",
"C. c #7C544A",
"Z. c #795649",
"A. c #725454",
"S. c #755953",
"D. c #765959",
"F. c #7B5C53",
"G. c #7A5A5A",
"H. c #775756",
"J. c #615B60",
"K. c #7A6949",
"L. c #7B6256",
"P. c #79625B",
"I. c #6B615A",
"U. c #7A6861",
"Y. c #736A63",
"T. c #875904",
"R. c #8F7414",
"E. c #917114",
"W. c #8C692F",
"Q. c #846738",
"!. c #9C7A26",
"~. c #9F7C36",
"^. c #A57705",
"/. c #A57F22",
"(. c #A07C3E",
"). c #875D5A",
"_. c #856545",
"`. c #82665D",
"'. c #85695E",
"]. c #856556",
"[. c #897344",
"{. c #8D7650",
"}. c #927C47",
"|. c #947854",
" X c #856B63",
".X c #8B6D63",
"XX c #816B67",
"oX c #8B7166",
"OX c #8D7169",
"+X c #877769",
"@X c #8B7E71",
"#X c #906F63",
"$X c #927465",
"%X c #93756B",
"&X c #95786D",
"*X c #977869",
"=X c #9C7D72",
"-X c #947A76",
";X c #A07F6F",
":X c #AA870F",
">X c #A98510",
",X c #B48C0D",
"<X c #B78F10",
"1X c #BF9B1E",
"2X c #BA900C",
"3X c #A68836",
"4X c #AC9235",
"5X c #B08D24",
"6X c #B08F38",
"7X c #B69127",
"8X c #9A8449",
"9X c #978257",
"0X c #9D904C",
"qX c #9E816D",
"wX c #9D8173",
"eX c #98877C",
"rX c #AF9454",
"tX c #B29345",
"yX c #AD9556",
"uX c #A3876A",
"iX c #AA8D74",
"pX c #A38776",
"aX c #AA936C",
"sX c #AC9377",
"dX c #B69D7C",
"fX c #B19976",
"gX c #BAA27C",
"hX c #C19914",
"jX c #C29704",
"kX c #CEA818",
"lX c #EEC306",
"zX c #9F8F80",
"xX c #9F9081",
"cX c #AA8F81",
"vX c #A89585",
"bX c #A69683",
"nX c #B69E87",
"mX c #BEA383",
"MX c #B9A38A",
"NX c #BCA793",
"BX c #C1A686",
"VX c #C5AA8A",
"CX c #C8AE8D",
"ZX c #C2A887",
"AX c #C0A995",
"SX c #CAB08F",
"DX c #C7B298",
"FX c #D5BB99",
"GX c #C9B7A3",
"HX c #D1BCA7",
"JX c #D5C2AC",
"KX c #DAC8B1",
"LX c #E6D4BB",
"PX c #ECDAC1",
"IX c #F1DFC5",
"UX c #F5E4C9",
/* pixels */
"$ $ 1 $ # $ $ $ * 6 w k 5 . . O , , + . . + $ $ # . $ e @ . & $ .           . . $ # X # % X X $ $ , , X X X . . . + + X # # X $ ",
"$ & 1 + # $ & * 5 6 s k * . . X ; + o X . . , f H F g E./ $.m.bXbXeX XL.N.G & .   . # $ # X $ $ $ $ , + . X X . . & & $ + $ & # ",
"$ 6 3 X $ & , 1 s 7 c s + X . + + X & . e 3.R.tXrXaXnX!.^ > &.%XDXMX%X).pXNXDX Xa.x X   . . $ $ , , $ $ X X X . . & & & & + & 8 ",
"< k 1 # & , 1 8 6 7 k 6 & . X ; X +   f <X:X^.:XtXeXeXw.0.' O.G.OXx.j.#.~ %X7.6.oXpX@Xi.j . . $ , 4 , $ + X X X & & & X & 5 & 5 ",
"8 j & $ , 5 l b k 9 8 & X X + X X . = 4XlX^.2.:X1X(.W.U.XX=X=X%X%X-X'.&.[ #X+.F ~ F Y.pXnXY.C + X & & $ , & $ + + , $ + . 8 l 3 ",
"j k $ $ 3 b b b l l 9 8 & + + X X   1.1XjXT.e 3.kXW.9..X%X%X&X%X%X.X].'.] =.s.-.~ T L N.oXt.eX+XH $ . + , , & X + & $ + X < m 8 ",
"k 6 $ < l m l b 9 1 < & X X X X o X 5X,X^ 4.e ) hX|.-X.X%X%X&X&X%X.X%X`.6.*XN.t.p r.r.N.$XW  Xs.s.@Xi.X   + , $ + & , $ + X l b ",
"8 , < 6 b b m l 0 f :.= . X + o . = 5X:X( 4.@ h 2X6X~.]..X=X-X=X`..X Xn.G.%XXXt.o.p.I.p.XXJ.$Xs.N.m.eX+Xx o & , + $ 8 , + . , x ",
"& * 3 6 l m b b * 1.8Xf + X + + % h !.q.2.^   e <X5X9.F. X.X.XoX X%X..- w m F.s.e.N.e.E s.t.n.E XXY r.*X+Xm.8 1 + & 1 k + + @ 6 ",
"B a 5 7 m M b b * 0.8XD & X o + % 3.3Xe ( T.h - >X3X-X%X%X&X&X&XwX&X*.,.<.T v u.b I r.p.N.E W E N.r.'.'.`.L.m.f & + 5 k 1 + X 0 ",
"%.,.,.O.J b n 8 . w.[.g , + + + % R.1XT.( T.2.o ,XhX3XQ.OX%X%XOX.X$X}.8XQ.,.F T N e.e.Y e.h.s.a.e.XX.X.X XP.n.7.e $ N 6 8 & + q ",
"s d ' @.7.j.O.s . 0X[.D 3 + $ X   E.kX2.^ ( E.> !./.9.Z..X.X'._.8XyX[.,.%.7.-.M K +.y.M M `.l.l p.OXN..X.X%XA.`.5.@ q 0 s 6 5 N ",
"* s d d a _ 6.B.6.rX9.| > < y y B 0.8.#.6.7.7.B.z.z.z.B.B.7.Z.0X0.1.6.z.k.E T F a.g.I c P U K N -.W E P.%X&X XG._.h 0 9 3 f 0 q ",
"< l 7 a A a r Z 6.V.C.9.1.,.6.6.z.7.z.V.B.V.C.C.C.).F.F.Z.F.7.@.@.=.B.B.P +.#.T T U T I c r.R m m.9.m.%X.X%X.X XU.8.f q , j 9 & ",
"l b 5 6 V A A a 2 u 6.V.*.&.6.V.).'..X%X;XiXfXnXBXVXVXVXaXnXBXS.m.fXiXqX'.F.K ;.U { F J F } P K K Z.&XpX=X%X.X'..XK.h R d.d.R . ",
"K 6 6 k M x A A A a = ' '.qXqXiXBXCXVXSXSXVXVXCXdXfXdXdXdXCXgXK.K.VXVXsX;XM.T A.r.J F i.U n o.S e.T *.c.P.*X%XoX%X].4.Q c q d.q ",
"k < 6 s Y $ t _ A A { .XCXSXnXfXZXZXmXVXVXBXBXSXsXmXCXVXSXgX[.Y K m.G.b.V.e.r.A.W q i.D.I i.-.+.u.U ' _ { #.y.A.OX%X4.x $ & E Q ",
"$ 7 < b M X X B _ A A.sXBXVXdXaXVXCXBXBXBXdXdXBXaXmXCXZXFXgXK.q w >.A.A.G.l.y.c.p.s.b.l.T c.T e.S.y.l.y.;.#.} ] #.y.5.B 5 0 $ Q ",
"1 7 k Y k X $ 3 #.;.].dXnXBXnXaXfXfXyXaXdXfXfXfXaXgXdXiXaX%XL.e.e.I.A.M.V     @ : A l.A.i.w w e.A.M.k.c.c.c.c.v.;.} _ A l 1 $ R ",
"6 k M T 1 + < F =.y..XBXmXCXCXfX|.9X{.iXsXiXiXuX$X].S.y.O.y.y.l.c.n.D.&.i r - o     > n.a.q K k.c.M.y.l.v.l.c.c.b.y.v.] r.R 0 R ",
"6 k m b $ $ * J 6.l.wXVXsX;X|.].C.).C.C.V.=.*.] A d d d B A B A B A ` X.7.6.@.@.r o   $.A.l.c.M.M.M.y.c.c.l.c.c.l.y.k.o.W ! + P ",
"5 6 M 5 . ; < +.6.V.'.].C.B.).C._.V.z.*.] _ d A A A A A _ _ _ S A A A | %.%.@.7./   . Z _ { X.$.y.l.y.A.c.b.c.c.k.n.>.B h.W * P ",
"3 7 m & $ 6 5 +.&.z.B.C.C.V.6.X.d d t t t t u t t t t t t t t 2 r 2 2 d =.%.@.6.g   2 a A A A B A d _ } O.y.l.A.c.>.G G E q q R ",
"1 k c $ & 1 5 H ] B.z.#.d p u B A } ;.;.y.y.v.b.l.l.c.c.l.v.l.k.;.$.O.&.7.` @.%.` O ; = 2 t u d d A B B d d d { V y f C 8 9 k Q ",
", 5 l & * * 7 a } &.d V $.l.M.D.G.`.H.G.A.G.P.H.D.D.n.A.G.G.M.A.D.D.n.c.D.' i f p $.$.o.' B u t 2 2 2 y a a t : = 2 2 2 5 7 P Q ",
"< < k < * * 6 5 V } { A.A.A.b.b.i.y.M.A.A.o.o.A.A.H.o.$.D.D.o.o.D.A.o.o.A.y.p D g *.G.u.n.G.M.c.k.y.' y t : = ; = = = , 8 P Q P ",
"* & 7 5 * * s < t { A d l.D.M.M.o.y.A.A.A.$.k.A.A.A.k.n.A.A.c.n.b.c.l.v.b.M.g Z D p c.o.>.D.M.c.o.n.A.y.O.+.G C a 4 - 6 f.Q P & ",
"$ * 6 5 $ 5 s < 4 V A : 2 >.A.c.n.A.n.A.c.c.D.M.A.M.j.n.A.A.c.V.M.c.b.j.c.M.| g X./ } M.j.l.c.c.y.y.$.G C O.X.O.o...G 3 9 L 5 & ",
"$ 5 5 < $ < < , < a A d ; . S *.l.D.M.c.l.c.A.b.A.n.c.D.D.D.c.c.c.l.l.j.v.c.y.Z  .| g l.A.y.l.y.O...o.o.X.X.....{ ..G ; + q 0 & ",
"$ * 5 5 $ * * & < * A d 2 $.A ; t A l.A.c.H.A.D.;.' y.v.b.A.c.M.M.V.M.l.k.c.c.] [ | [ [ l.$.X.......$.+.+.O.X.+.+.+.C . + 9 w & ",
"$ * 5 * $ * $ , ; 5 < t nXpXr ; 2 @ vXL.B O.y.b.D..XZ t d A $.;.$.y.l.v.l.c.M.;.p | | p ..O.o.X.G o.+.&.G +.o.S B z : X X 0 w & ",
"# $ 5 * $ * # , $ < . cXHXd ; : o I.KX` = = : - eXAXp ; : : -X,.: a t ` F._ A S i ` ] ` g V u S.+Xt t ' ].y = ..2 O $ X + 5 L < ",
"$ % < * & # X $ $ . @XLX>.= 2 + u LXvX: 2 2 : : GXvXt 2 ; 2 GXn.O 2 ; a nX{ = 4 : p  .` p > = *.HXN.  = S.cX  y.@Xo & . + * 0 $ ",
"# & * * $ . . $ . Y.UXP.; , 2 @ eXPX*.O 2 2 + G PXwX= 2 2 , JX+X- 4 2 : HXXXO 2 : r ` | [ r ; : %XLXC O : NXeX  pXI.  + $ $ $ + ",
"# & & * # # # . N.IXwX; & &   i.UXpX: 2 2 t O I.UX+X- 2 2 4 KXvX- 4 2 - bXJX2 2 2 - ` | @./ : = S LXDX2 O f JX+X2 GXH . $ $ $ X ",
"# # $ & # #   e.LXNXz % * # & GXLX>.+ 2 2 2 = vXUXn.- t ; y KXNX: 2 2 O P.PXA = 2 : r Z ` [ r ; - @XUXwX+ O o.LXa.i.DX, # X # # ",
"l l l l l l l l l l l l l l l l l l l l l l l l l l l l l l l l l l l l l l l l l l l l l l l l l l l l l l l l l l l l l l l l ",
"l l l l l l l l l l l l l l l l l l l l l l l l l l l l l l l l l l l l l l l l l l l l l l l l l l l l l l l l l l l l l l l l ",
"l l l l l l l l l l l l l l l l l l l l l l l l l l l l l l l l l l l l l l l l l l l l l l l l l l l l l l l l l l l l l l l l ",
"l l l l l l l l l l l l l l l l l l l l l l l l l l l l l l l l l l l l l l l l l l l l l l l l l l l l l l l l l l l l l l l l ",
"l l l l l l l l l l l l l l l l l l l l l l l l l l l l l l l l l l l l l l l l l l l l l l l l l l l l l l l l l l l l l l l l ",
"l l l l l l l l l l l l l l l l l l l l l l l l l l l l l l l l l l l l l l l l l l l l l l l l l l l l l l l l l l l l l l l l ",
"l l l l l l l l l l l l l l l l l l l l l l l l l l l l l l l l l l l l l l l l l l l l l l l l l l l l l l l l l l l l l l l l ",
};
