/* XPM */
static char *exit[] = {
/* columns rows colors chars-per-pixel */
"80 80 99 2 ",
"   c #4B4B66",
".  c #4E4E69",
"X  c #504F6A",
"o  c #4F506C",
"O  c #51516B",
"+  c #4F567B",
"@  c #535571",
"#  c #595773",
"$  c #575975",
"%  c #5B5A75",
"&  c #50567B",
"*  c #55597B",
"=  c #5C5C7A",
"-  c #615D7A",
";  c #5E607B",
":  c #636376",
">  c #63637C",
",  c #6D6D7E",
"<  c #706F7F",
"1  c #555C81",
"2  c #595E86",
"3  c #5A5F88",
"4  c #5B6185",
"5  c #5D638B",
"6  c #646483",
"7  c #6B6684",
"8  c #676981",
"9  c #6A6C82",
"0  c #63658D",
"q  c #62698E",
"w  c #6A6D8A",
"e  c #706D82",
"r  c #736D8D",
"t  c #6D728C",
"y  c #727384",
"u  c #787887",
"i  c #71748B",
"p  c #78708C",
"a  c #7B7B8B",
"s  c #666790",
"d  c #656C90",
"f  c #6C6B93",
"g  c #716F96",
"h  c #6D7495",
"j  c #727496",
"k  c #7B7495",
"l  c #717897",
"z  c #7A7E95",
"x  c #767298",
"c  c #7B769A",
"v  c #737A99",
"b  c #7D799C",
"n  c #847997",
"m  c #857C9F",
"M  c #897E9D",
"N  c #867EA0",
"B  c #887FA0",
"V  c #7D8196",
"C  c #7C829E",
"Z  c #7E86A1",
"A  c #838594",
"S  c #888692",
"D  c #898894",
"F  c #82869E",
"G  c #8C809E",
"H  c #85899D",
"J  c #908F98",
"K  c #919099",
"L  c #9A999E",
"P  c #8187A0",
"I  c #8C81A2",
"U  c #858AA2",
"Y  c #898BA2",
"T  c #9386A6",
"R  c #9588A7",
"E  c #988AA7",
"W  c #9689A8",
"Q  c #9A8BAA",
"!  c #8C92A6",
"~  c #8E94A8",
"^  c #9195A5",
"/  c #9A9AA2",
"(  c #9196A9",
")  c #969BAC",
"_  c #999EAD",
"`  c #A09FA4",
"'  c #9DA1AE",
"]  c #A1A1A6",
"[  c #A3A5AD",
"{  c #A7A8AE",
"}  c #ACABAE",
"|  c #B0AFAF",
" . c #A3A7B0",
".. c #A6A9B0",
"X. c #ACADB1",
"o. c #B0AFB1",
"O. c #B3B2B3",
"+. c #B8B7B5",
"@. c #BAB8B6",
/* pixels */
"2 2 2 3 2 2 s f f f f f f f g f f f f f f f f f f f f f f g f f f g f f f f f f f f f f f g f f f f f f f f f f f f f f s f 5 2 2 2 0 s f f f f f f f f f f f f ",
"2 5 s 0 s s s f f x c c c c c c c x c g f f f f x c c c c c c c c c x f f f f f f f c b c c c c b b c c f f f f f f f g c c x x g m g m x m x m x m x f g f f f ",
"3 5 f f f f f f g c N N N N N N N N N g f f s f x m N N m B B m B N x f f f f f f f m N B m N m N m N N g f f f f f f x m m m m m m m m m m m m m m m f f f f f ",
"3 5 f f g g g f x N N N N N N N N N N g g g g g c N N N N N N m N N c g x g x g g g m N m m m m N N m N x g g g g g g c B m m m m m m m m m m m m m m g g f f f ",
"2 5 f f m m N m m N N m N m m N N N N N n m m m N N N N N N N m N N m N m m m m m N N N m m m m m m m N N m m m m m m N m m m m B B B N m B B B m m m m m g f f ",
"2 5 f g m m m m m m m N N N N N N B N N N m m m N N N N N m m N N m m N m N m m N m N m m N m m N N N N m m N m m m N m N m m B B B B B N B B B m m m m m g f f ",
"s f c c m m m m m m m m N N B R B W B N N N N N T R R R T T T T N m N m m m N m N m N m m N m M m m N N N m N N m N m I T T T T B Q B B N N B B m m m m m x f f ",
"f x m m m m m m m N N N N N R Q Q Q Q N N n B B R Q Q Q Q Q Q T I N N N m N N N m N N N N N m m N m m m N N N m m m m I Q Q Q Q Q Q Q B m m B B m m m m m x f f ",
"f g m m N m m N m N B B B B W Q Q Q Q W B B M B W ` Q Q Q G G S k k k c k k k c n c k k k k k k k c N N N N N M m B B T Q Q Q Q Q Q Q B B B B Q m m m m m g f f ",
"f g m m N m N m B B Q Q Q W Q Q Q Q Q Q Q Q Q Q Q Q Q Q Q e X X O O O O X X O O O O O O O O X O   6 N N N m N m B T W E Q Q Q Q Q Q Q Q Q Q Q Q B m m m m m f f ",
"f x m m m m N N B W Q Q Q Q Q Q Q Q Q Q Q Q Q Q Q Q Q Q Q e       . .       . . .   X       . .   6 B B N N M m B R Q Q Q Q Q Q Q Q Q Q Q Q Q Q B N m m m g f f ",
"f x m m N N N m B W Q Q Q Q Q Q Q Q Q Q Q Q Q Q n p p p p %   : D D a i i S D A D D D D S S S %   # 7 7 7 7 g M m I T T Q Q Q Q Q Q Q Q Q Q Q Q B N m g m g f f ",
"f g N N N m m m M Q Q Q Q Q Q Q Q Q Q Q Q Q Q Q 7             : O.O._ Y ^ O.+.+.O.+.+.O.O.+.} :             : m m m m I Q Q Q Q Q Q Q Q Q Q Q B B B m g f f f f ",
"f x m N m N m m B B Q Q Q Q Q Q Q Q Q Q Q Q Q K 7     - : ; % < | O._ Y ^ O.O.O.o.o.o.o.X.o.} , # % : % O   - n b m m I T R T Q Q Q Q Q Q Q Q B B B m g f f f f ",
"f g f g n N N N B B M B Q Q Q Q Q Q Q B M n # # X   - } } } X.X.' ' ) ~ ( _ ' ' ' ' _ _ ) ! ^ { } } } ] -   X @ # k m m M B B B B Q Q Q Q Q N N m m m f f f f f ",
"f f f g m N m N N N B R Q Q Q Q Q Q Q M N p         : O.@.+.+.O.' _ ) ) _ _ _ ) _ ) _ ) ! U Y X.| O.O.| :       X p N N m m m m Q Q Q Q Q B m m m m m f f f f f ",
"f s f f m m m m N m m N B B B B B Q B n 7 7 X . < u A { { {  . ._ _ ( Z ! ! Z ) _ ) _ _ ) ! ~ ) / [ [ [ V u , . . , r p m m m m B B B B B B m m N m m x x g f f ",
"f f f g m m m m m m N m B B m N B B N -       X L @.O.' ( ) ) ) _ ' Z Z Z Z Z ! ) _ ) _ ) ) ) ~ F ! _ _ ..O.J     . . - m m m m m N B B B B B m m m m m m x f f ",
"f f g f c m m m m m m m B N N N B N m - . X X # ' O.O.) ' ) ) ) ) ) Z C C C C Z ( ( ( ( ) ) ) Z U ! _ / { o.K @ O . . : b m m m m m m m B B B B m m m m m x f f ",
"f g N m N m m m m m m m N N N N p # # X   - ` ` ' ' ' _ ) ) ) ( Z Z t $ $ + $ ; ; ; ; ; t C Z ~ ) ) ) ( ' ' ' ! ^ :   O % % k N m m m m B B B B N m m m m x s f ",
"f x m m N m m m m m m m N n m N r X       < +.O.' ) _ ) ' ' ' ~ Z Z ;   o o   . .       4 C C ~ ) _ ' ( ' ( _ _ ' :       . k m m m m m m N m m m m m m N x f s ",
"f g m m N N N m m m m m N m m N r   X , u S { } ' ) ) ( ~ C V V V t ; + * + + $ $ $ * $ ; d t V V Y ( ( ) _ ) _ _ z 9 > . . g m m m m N m N N m m m N N N g f f ",
"f x m m m m m m m N n m N N N N r   X L +.{ Y ^ ( ) ( U Z ; o o o o * 5 5 5 5 5 5 5 5 5 + o     o 8 Y U ( ) _ _ ) ' _ A . . p N m N m m m N m m m m B m N x f f ",
"f x m m m N m m m N N m m m N n r X X L +.} ! ^ ) ' ) U U ;   o o @ * 5 q 5 5 5 5 4 5 5 +   o + o 8 P U ( _ _ ) ' ) _ A . . k m m N m m m m m m m m m m N x f f ",
"f x m N N N N N N m m N m m 2 - #   X L O...U U ( ) ! ; ; 4 5 4 ; 4 5 5 d 5 d d 5 5 5 5 5 1 1 1 4 ; ; ; ! ) ) ' ) ) ' V o   $ % 7 m m m m n g g n m m x g f f f ",
"f x m m N N N N m N m m m m #       . L +. .Z Z ( _ ! o   1 5 5 5 5 5 5 d C C d 5 5 5 5 5 5 5 5 4 *   . C ) ) ) ) ' ' V o       - m m m m n f f x m n f f f f f ",
"f x m m B B B Q B B N N N n #   # y y ` O. .! U H C V $ + 1 5 5 d d d q 5 q d d q q q d d q q 5 5 1 + ; V H Y ' ) ) _ U ; ; o . 6 n m m m m g x c c x g f f f f ",
"f x N m B B B Q Q Q Q B N N #   < | O.{ _ _ _ ) y o @ 4 5 5 5 q V d C d C C d C C h h h h h h q 5 5 4 4 @ o 9 ( ' ) ) ! v v $   - m m N m m m m x f g f f f f f ",
"f x N N N N B Q Q Q Q B B B #   < | O.[ _ _ ' ' 9   + 4 4 5 5 q q C d C d C d C h h C h C h h 5 5 5 5 5 o   8 ' _ _ ) ! V v $   - m m N N m m N g g f f f f f f ",
"f g g x B B Q Q Q Q Q Q B Q -   < | | [ _ _ ) ' 9 o o 2 5 q d h C C d d 5 d d d h h h h h h h h d q 5 5 +   9 ' _ ) _ ! v v $   - m m m N m N m m c c f f f f f ",
"f f f f B Q Q Q Q Q Q Q Q Q 6   < | | [ _ _ _ ) 9   @ 4 5 d l l d C d q q q 5 C h C h C h h h h h h q 5 @   q _ _ ) _ ! V l $   2 n N N N m m m m m m f f g f f ",
"f f f g Q Q Q Q Q Q Q Q Q Q -   < | O._ ~ ( ) _ 9   @ 4 5 d l l C d d q q q q 5 h h h h h h h h V h d q @   9 ) _ _ _ ! C C $   2 N m m m N m m m m m g g f f f ",
"f f f g Q Q Q Q Q Q Q Q Q R -   < X.X.~ Z Z _ _ w   o 4 5 h l v d C C d d C d C v l h v h 5 d h l h h h @   8 ' ) ' _ ( U U ; o - N N N N N m N m m m c N g f f ",
"f f f g T Q Q Q Q Q Q Q Q T #   < O.O.~ Z ! ) _ w   o 4 5 d v v C d d C C d C d v h v h h q d h l h l h @   8 ' ( ' ' ) U Z ;   - N n N N N m m m m N N N g f f ",
"f g n c B B B B M R Q Q Q R -   > ' _ ) _ ( ~ ~ 8   + d d l l h d C 5 q d d d C h l l l h h h h l l h h @   8 ! ! Z ~ Z C V $   - N N N N m m m m N N N m g f f ",
"f x m m m B m m M R Q Q Q R -   ; ! ~ ) _ ) U Z ;   + h l l l l C d q 5 q d C d l h h l l l l l l l h h @   ; C Z Z Z Z C v $   - n N B m m N N m N m N N g f f ",
"f x N N m m m B m T R R T B -   ; ! ( _ _ ( Z Z 4   @ h l l v l d C q 5 d C d C h l h l l l l h l h h l +   4 Z Z Z U Z C v $   - N N B B B B B N N N N N x f f ",
"f x N N m m m N N B m m m m #   , } { ' _ ) Z Z >   @ h h l l v C d C C C d C d l l l l v l l l l l h l +   9 ) ' _ _ ~ Z C ;   - B N B Q Q Q Q N m N N N x f f ",
"f x N N N m m m N N m N m m $   < } } ' _ ( U Z >   @ h h v v h d C C d C d C d l l l v v v v l v v h l @   9 ' _ _ ' ~ U C ;   - M B Q Q Q Q Q B B N B N x f f ",
"f g N m N m m m m B m m N m %   , | | ' _ ) ! ! 8   @ q q h d h C d d C d C d C v v b Z v h h v l l v h @   9 ' _ _ ' ( U C $   - B Q Q Q Q Q Q B Q B B N g f f ",
"f x N N N N N N N m N m m m $   < O.| ' _ _ _ _ 9   @ 4 5 5 q d d d C d v v v v v v H Y v d d h l l h h @   9 ) _ ' _ ( Z Z ;   - Q Q Q Q Q Q Q Q Q W m m x f f ",
"f x n N N c N N N m m m m m #   , } O.' ) ( ( _ w   @ 5 5 q d d C C C C v v C v v C H Y b h h l l l l h @   8 ' _ _ _ ~ Z Z ;   - Q Q Q Q Q Q Q Q Q W m m x f f ",
"f f g g c N N N m m m m m m %   , } | ! Z U _ _ 9   o 5 5 d v v C C C C U U Y P U U U U H F F v l l h h @ . , ) _ _ _ ( Z C ;   - Q Q Q Q Q Q Q Q Q T N m x f f ",
"f f f g N N n N m m m m m n #   , O.| ! Z Y ( _ 9   @ 5 q d v v d d C Z H U U Y U H U U Y U H v l l V l @ . 9 ) _ _ _ ( Z C $   6 Q Q Q Q Q Q Q Q Q R m m x f f ",
"f f f g g x c N m m m m m m #   , X.X.( U ! ) ) 9 . @ h h h v v C C C ! Z U Y H H U I H Y Y Y b C C C h @   9 ) ) ' ' ( Z Z ; . - B B R B B B M B B B B m g f f ",
"f f f g f f g N m m m m m m %   < X.X.' ) ' _ ) 9   @ h v v v v Z Z Z Z ! H Y Y Y I U U Y Y Y U Z C C h @   9 ' ' ) ' ( Z C ;   - m B M B N B m B N B B m g f f ",
"f f f f f f x N m m m m m n %   y | o._ ) _ _ ' 9 . @ h v v v v Z Z Z C C ! H Y Y U U H H U F U Z C l V @   , ) ) ) ' ( H C $   - m N N B N m m N m N N m g f f ",
"f f f g c N x g g b N m N b %   , } o.' ) _ ) ) 9 . @ h l v l l C d C V V U Y U Y H Y Y F v b P U C C l @   8 ' ) ' ' ( Z C $   - m N N N N m m m N m f g f f f ",
"f f f g c N x f f m m m N m @   < X.| ' ' ' _ _ q   @ V l v l l h l v v b H Y Y Y Y Y Y C v v H U C V V @   , ) ' ) ' ) Z Z ;   - m m m m m m m m m m f f f f f ",
"f g c c m N m g x N N N m n #   , ' ' ) ~ ! ~ Z ; . + h l C C C C C C m C U Y Y Y Y Y Y P C F Y U Z Z C @   , ' ) ~ ( ( Z Z ;   = m m m m m m m m m n g f f f f ",
"f x N N N m m m N N N N N m #   ; Z ! C V C l C ;   @ h v C Y U Y Y Y U Y Y Y Y I Y U H Y U Y Y U Y Z F $   4 ' ) Z Z Z Z V $   - m m m m m m m N N c f f f f f ",
"f g N N m m m m N N N N N N # . ; U ! V C C C C ;   @ h v C Y H Y H Y H Y U H Y Y Y U U U H I H Y Y Y F $   , ' ( ! Z Z Z C ;   - m m m m m m m N N c g f f f f ",
"f x N N N m m m m m m N N m @   , ' [ ) ( ( ( ( ; . @ l V V U ! Y Y Y Y Y Y Y Y Y Y Y U U U Y Y Y U U F $   ; ! Z ( ) ~ U U ;   - m m m m m m m N N N m m g f f ",
"f x N N N m m m N m m N m m #   < { X.' _ _ _ ( 9   @ h v C U U H U Y Y Y Y H Y Y H U Y Y Y Y Y Y Y Y F %   ; Z Z ( ' ) Z Z ;   = m m m m m m m m N m m m x f f ",
"f x N N N m m m m N m m m m #   < { ..' ) _ _ ' ,   + l l C C C Y Y Y Y Y Y U P P F F F U Y U U Y Y U F $   > U ~ ) _ ( U Z ;   - n m m m m m m m m m m m x f f ",
"f x N N m N m m m m N m N m #   9 ....' _ ) ( ' 9   o l C h C v Y Y H I Y Y I F v v v v F H Y Y Y Y Y F #   , ' _ _ ' ( U V ;   - m m m m m m m m m m m m x f f ",
"f x m m m m m m N m N m n m #   9 X.{ ' ) ' ( ( 8   O v v v v b Y H H Y Y Y H F v v v v F Y Y Y Y Y Y P $   8 ) ) ) _ ( Z Z ; o - m m n N m m m m m m m m x f f ",
"f f f g c m m m m m N r # # & 1 9 ~ ! ! Z Z Z Z ;   % C U P F U Y Y Y Y Y Y U U F H U U Y Y Y Y Y Y U H $   ; Z Z Z ! Z Z Z 5 4 1 = = k N m m m m m m m m g f f ",
"f f f f c m m m N m N r     & 1 5 C Z Z Z C v C ;   % F Y Y U Y Y Y Y I I Y Y Y T ! Y Y Y Y Y Y Y Y H H $   ; Z Z Z Z Z C C d 5 * . X p N m m m m m m m m x f f ",
"f f f f m N m m N m m f X   s g C ! ( ! ! ! Z ! 6   % F U F P P H F U P H U H Y Y Y Y Y Y Y Y H F P C V $   ; ! ~ ! ! Z ! Y v d 0 . . r N m m m m m m m m g f f ",
"f f f g m N m m m N N 7   X ` o.X...o...........y   $ C U z v l v v v v z Y Y Y Y Y Y Y Y Y H v v l l h @   y { {  .{ {  .{ ( ! c X . r m m m m m m m f f f f f ",
"f f f f c m m m m N N r   X / o.X.o.o...o.......y   % C P v l l h v v v v U Y Y U Y Y Y Y Y U C v v l h o   y  . ... .{ ' ' ! ! n X   g m m m m m m m f f f f f ",
"f x N c m m m m m m m r . O F ( ) ' ' ' ' ( U U 8   O = = $ $ $ $ $ $ $ $ = - : : > > > : > ; % * = = % o   9 ( ( ~ ( ( ( ( ! ! x     g m m m m m m x f f f f f ",
"f x N N m m m m m m m r   . b P U ( ) ( ( ! Z C ; .       .   .   .     .           .         .           o ; U U P U ! ! ! ! Y n X . g m m m m m m m f f f f f ",
"f x m c N m n c c c m s   X r x b H F A H V j l % . X % = = * = $ * = * = = = * = = = * = * = * = = 1 = X   - c c z b V V F V V i O . 7 m c N N m m c g x g f f ",
"f x m m N N x f f f f 0 X X   X . X X X X X O . . . @ s f f f f f f f f f g f f f f f f f f f f f g f f @     X X X o . O O O . o . . 0 f j N N m m m m m x f f ",
"f x N N N N x f f f f 0 X X   X X X . . . . . . . X @ s f f f f f f f f f f f f f f f f f g f f f f f s @ X X X X . .   . o . . .   o 6 f g m N m m N m m x f f ",
"f x N m N N N c n c n x r r r r r r r g g r r r i r k c c c c x m c c x c N c c c c n c c c c c c n c c p r r g r p g r r r r r p r r k c c N N m m m m N x f f ",
"s x N N N c N N m m N N N N N N m B B m B m N N N N N N B N N N N m m m m m m m N N N N N N N N N B N N N B N N N B N N N N N N N m N m B m m m m m m N B x f f ",
"f g c c N N N N N N m m N m N N m m m m m m I I I I B I I I I B N m m m m m m m N N N N N N B B B B B B B B I B B B N N N N N N m m m m N N m m m m m c n g s f ",
"f f f g c N n N N N m m m m N N m m m m m I Q Q Q Q Q Q Q Q Q R N N m m m m N N N N N c N N N T Q Q R Q Q Q Q Q Q B N N N N N c m m m m m m m m m m n f f f f f ",
"f g f f N N c N m m N N m m m m m m m m m I Q Q Q Q Q Q W Q Q R N m m m m m N N N N N N N c N T Q Q Q Q Q Q Q Q B N N N c N N N m m m m m m m m m N c f f f f f ",
"0 s f g g x m N N m N m N m m m N N N I R R Q Q Q Q Q Q Q I I I N m m m m c N N m m m m m m N B B B B T B B B B B N m N N N N N m m m N N N c N g g g f f 0 0 0 ",
"2 0 f f g f g N N m m N N m m N m N N R Q Q Q Q Q Q Q Q Q I N N m m m m N N N N m m m m N N m m N N N N m m N N B N N m N N N n m m m m N N N N g f f f f 0 2 3 ",
"2 0 f f f f g m c m c m m c m m m m N T W W R R W R R R T B N N N m N c c N c c c c m m m N m N N m m m m m m m m m m c N c b n m m m m N N n c g f s s s 0 2 5 ",
"2 0 f f f f f f f f f f f f c m b m N N N B B B N N N N N m N N N N x f f f g f f g m m m m N N N m N N m m m m m x f f g f f g g m m m N c f f f f s 3 3 3 2 3 ",
"2 0 s f f f f g f f f f f f m m m N m m N N N N N N m N N N m m N N g f f f f f f g c N m m m m m m N N N N N m m f f f f f f f g m N m m c f f f s s 2 2 2 2 2 ",
"2 2 0 2 3 0 0 f f f f f f g g g g g g g g g g g g g g g x g g g g g g f f f g f g f g g g g g g g g x f g f g g g f f f f f f f g g g g g f f f 0 0 3 2 2 2 2 2 ",
"2 2 2 2 2 2 0 f f f f f f f g f f f f f f f f f f f f f f f f f f f f f f f f f f f f f f f f f f f f f f f f f f f f f s f f f f f s s f f s f 5 2 2 2 2 2 2 3 ",
"2 2 2 2 2 2 2 0 f f f f f s f f f f f f f f f f f f f f f f f f f f f f s 0 3 0 3 0 3 3 0 3 5 0 f f f f f f f f f f f f f f f s f f f f f f f f s s 3 2 2 2 2 2 "
};
