/* XPM */
static char *player[] = {
/* columns rows colors chars-per-pixel */
"80 80 193 2 ",
"   c #4D4A5E",
".  c #474762",
"X  c #4C4C65",
"o  c #4E4E68",
"O  c #504E65",
"+  c #504F68",
"@  c #545166",
"#  c #595565",
"$  c #54526B",
"%  c #59566B",
"&  c #55586F",
"*  c #5D5A6E",
"=  c #575571",
"-  c #595772",
";  c #575A70",
":  c #5C5A73",
">  c #5C5B79",
",  c #665D64",
"<  c #615D6D",
"1  c #625D73",
"2  c #625E7A",
"3  c #5F6176",
"4  c #66606A",
"5  c #776768",
"6  c #656274",
"7  c #6B6373",
"8  c #6E6977",
"9  c #66627D",
"0  c #6B657B",
"q  c #6E697A",
"w  c #726C7C",
"e  c #7A6F79",
"r  c #7C7175",
"t  c #77707C",
"y  c #7C737D",
"u  c #877167",
"i  c #86716A",
"p  c #8D7368",
"a  c #807376",
"s  c #81747B",
"d  c #837B7F",
"f  c #8C827E",
"g  c #90857F",
"h  c #A58069",
"j  c #AB896D",
"k  c #BC8E6C",
"l  c #BE916E",
"z  c #B29576",
"x  c #D59F6D",
"c  c #DBA26D",
"v  c #CDA67A",
"b  c #DBB47E",
"n  c #E5AA6E",
"m  c #E2AC74",
"M  c #E8AD71",
"N  c #EBB173",
"B  c #E3B078",
"V  c #EFBB79",
"C  c #F0BD7C",
"Z  c #5A5E86",
"A  c #5B5F88",
"S  c #605F81",
"D  c #5D6189",
"F  c #6A6583",
"G  c #6E6986",
"H  c #63658D",
"J  c #6E6A89",
"K  c #736C83",
"L  c #726C8B",
"P  c #7B7481",
"I  c #7C7481",
"U  c #76708C",
"Y  c #7B738A",
"T  c #666790",
"R  c #676890",
"E  c #6C6B93",
"W  c #716F96",
"Q  c #737097",
"!  c #7B7494",
"~  c #767298",
"^  c #7B769A",
"/  c #7F799C",
"(  c #807784",
")  c #837B84",
"_  c #81778A",
"`  c #867B8C",
"'  c #8B7E8D",
"]  c #807795",
"[  c #837A95",
"{  c #887E90",
"}  c #857C9F",
"|  c #887F9E",
" . c #867EA0",
".. c #887FA0",
"X. c #878080",
"o. c #8C8383",
"O. c #8D838B",
"+. c #938583",
"@. c #958A85",
"#. c #9D8C85",
"$. c #948788",
"%. c #9B8E89",
"&. c #9E918A",
"*. c #8E8292",
"=. c #8B819D",
"-. c #928494",
";. c #958894",
":. c #9A8B97",
">. c #92849B",
",. c #978999",
"<. c #9B8B9A",
"1. c #9D9190",
"2. c #9F909C",
"3. c #A08D89",
"4. c #A79287",
"5. c #A4918D",
"6. c #AB938C",
"7. c #B2958C",
"8. c #A28E91",
"9. c #A08F9A",
"0. c #A09391",
"q. c #AC9E95",
"w. c #A4949C",
"e. c #A89899",
"r. c #B59B95",
"t. c #BC9F92",
"y. c #AFA097",
"u. c #AEA099",
"i. c #BBA493",
"p. c #BEAD95",
"a. c #B3A49A",
"s. c #B8A79B",
"d. c #BAAA9D",
"f. c #8C82A2",
"g. c #9286A6",
"h. c #9588A7",
"j. c #998CA0",
"k. c #9789A8",
"l. c #998BA9",
"z. c #A594A1",
"x. c #A897A2",
"c. c #AC9BA3",
"v. c #B09FA4",
"b. c #B4A2A5",
"n. c #B8A6A5",
"m. c #BDABA4",
"M. c #C8A681",
"N. c #DFBB86",
"B. c #C0AE96",
"V. c #C5A99B",
"C. c #D3AE9C",
"Z. c #C6B296",
"A. c #C8B59B",
"S. c #CAB69B",
"D. c #D6B19C",
"F. c #D8B79E",
"G. c #E2BA9F",
"H. c #C2AFA6",
"J. c #D3AEA9",
"K. c #C5B2A6",
"L. c #CBB7A6",
"P. c #CCBAA5",
"I. c #C4B2A8",
"U. c #C9B6A8",
"Y. c #CEBBA9",
"T. c #D3BDA7",
"R. c #DBB6A8",
"E. c #D1BEAA",
"W. c #E5BCA0",
"Q. c #E1C18B",
"!. c #F2C383",
"~. c #F1C688",
"^. c #F1C88B",
"/. c #F0CE90",
"(. c #F5D291",
"). c #F3D89D",
"_. c #D7C1A3",
"`. c #DBC5A3",
"'. c #D6C1A9",
"]. c #DAC5A9",
"[. c #DEC8AA",
"{. c #E0C7A2",
"}. c #EFC3A4",
"|. c #E5CDAA",
" X c #E8CFAA",
".X c #F2C5A6",
"XX c #F4C6A8",
"oX c #F4CAA8",
"OX c #ECD2AB",
"+X c #F6DBA4",
"@X c #F2D6AB",
"#X c #F4D8AC",
"$X c #F5E3AD",
/* pixels */
"A Z Z A D D D R Q Q E Q Q E W W W W W W E E E E E E W W W W W E W E E E E E W W E Q Q Q E E E E E E E Q W W W W W W E W W W W W E W E E E E E E E E E E E E E E ",
"A Z D R R R E ^ /  ./  . . ./  ./ /  ./ W E E E E  . . ./ }  . ./ E E E E W  . .} /  ./  .Q E E E E ~  .} } } } } } } } } } } } } ~ E E E E E E E E E E E E E E ",
"Z Z H E E E E ^  . . ./  ./  . .}  . ./ W E E E E /  . . ./  . ./ E E E E W  . .}  .}  . .Q E E E E ^  . .} } } } } } } } } } } } W E W E E E E E E E E E E E E ",
"T T E E E ^ ^ /  ./  . . . . . .}  . .} / ^ ^ ^ / /  . . .} }  . .^ ^ ^ ^ /  ./ } } } }  ./ ^ ^ ^ ^ /  .} } } f.f.g.g.g... .} } } } }  .} ~ Q E E E E E W E E E ",
"R E E E W  . . .} }  .}  . . ./ } }  .} }  .}  . . . .} } }  .}  . . ./  . . . .} } } }  .}  . . . . .} } } } g.h.l.l.h.g.} } } ........} } ~ T E E E E E E E E ",
"E E E E Q  . ./ } } }  . . . . . . .} } } } } }  . . .} } }  . . . . . . . . . . .}  .}  .} }  . . .} } }  . .g.l.l.l.l.g.} ............} } } W E E W E E E E E ",
"E E ^  . . ./  ./  . . . . . . .} }  . .} } } }  . . .}  .} }  ./  . .} /  .}  .} } } }  .} } } } }  .}  .h.k.l.l.l.l.l.l.g.l.l.....} } } } } }  .} } W E E E E ",
"E E ^  . . . . .} } } }  . .} } } } } } }  . .}  . . . . . . . . . . . . . . . . . .} }  . .} } }  .} }  .k.l.l.l.l.l.l.l.l.l.l.....} } } } } }  . .} } E E E E ",
"E E ^  . .}  .} }  .f.f.g.f.f...} } } } }  . . .} U J J J J J J J J J J J J J J J J J J G ! }  .} } } } ..l.l.l.l.l.l.l.l.l.l.l.l...........} } } ^ } ~ E E E E ",
"E E ^  .} }  . .}  .h.l.l.l.l...} } } }  .}  . ./ ; o X X X X X X X X X X o X X o o X o o L | } } } }  ...l.l.l.l.l.l.l.l.l.l.l.l...........} } } W E E E E E E ",
"E E ^  .} }  . .} ..l.l.l.l.k...} } } } }  .} } ^ ; X $ 3 * 3 * < * : : * * * < * 6 < * 1 U } ] ] }  ...| ....l.l.l.l.l.l.l.l.l.....} }  . .} } } E E W E E E E ",
"E E ~ } }  . ...g.g.l.l.l.l.l...} }  .} }  .L $ $ o X d `.`._._._.`._._.`.`.`.`.`.`.`.`._.o.& & = = U ..............l.l.l.l.l... . .} }  . .] W E } } } } } W E ",
"E E ^  . . .} g.l.l.l.l.l.l.l...} } } } }  .J X X X X o.#X#X#X#X#X#X#X#X#X#X#X#X#X+X#X#X#Xd . X . X G .. .} } | ....l.l.l.l.h...}  .} } }  .~ E E }  .} } } E E ",
"E E Q ^ ^ }  ...g.g.h.l.l.l.h... .} } / U U 9 X $ o.@.i.#X#X#X#X#X#X#X#X#X#X#X#X#X#X#X#X@Xi.@.@.#.$._ J L } }  .........h.g...| } } } } }  .} ~ ^  . .} } } W E ",
"E E E E W }  . . ...h.l.l.l.h... .} } ^ = X o X * `.#X#X$XOX@X#X#X#X#X#X#X#X#X#X#X#X#X#X@X@X#X@X#X#X+.X = ] } } ..| } }  . .....} } }  . . .} } } } } } } } W E ",
"E E E E E }  . . . .h.l.l.l.h...} } =./ = X @ % 8 `.#X@X@X@X@X@X#X#X#X#X#X#X#X@X#X#X#X#X@X@X@X@X@X@X#.# 1 ] | } } } } } }  . ...}  .} } }  . .}  .} } }  . .Q E ",
"E E E T W }  .} }  ...........} } L 1 2 X X o.F.'.OX#X X'.].'.'.[.#X#X#X#X#X#XOX@X#X@X@X@X#X#X#X@X#X{.F.B.0 1 L .. .} } } } ...... . . . . . . . . .}  .} } E E ",
"E E E E W  .} } } } }  . ... . . .F X X . . &.#X#X#X#X|.P.Y.'.U.].#X#X#X#X#X#X#X@X@X#X#X@X@X#X#X#X#X#X+X`.* . J .. .} } } } }  . ... . . . . ... . .} }  . .W E ",
"T E Q ~ ~ } } } } } } }  .} } L L 2 X $ o.@.Z.@X#X|.|.].Y.U.'.U.].#X#X#X#X#X#X#X#X@X@X#X@X X|.`.p.p.B.V.r.0 2 U } } } } } } } ......l........... . .} } ^ ^ E E ",
"E E ^  . . .^  .}  .}  . .} ! = X X X 1 `.@X@X@XOX'.'.Y.'.U.P.'.].#X#X#X#X#X#X#X@X@X#X@X#X[.T.d.* + o o - [ | } } }  .} } ..} } ....l.l.l.l.....}  . .~ E E E E ",
"E E ~  . . .} } } } } } } } ^ = X X X 4 `.#X#X#XOX'.E.Y.Y.E.'.'.[.#X#X#X#X@X#X#X@X@X#X#X#X].E.d.% o o X $ ! | } ..} } } } } } ....l.l.l.l.l.....} }  .^ E E E E ",
"E E ^  . . . .} }  .} } } ..! $ X X X 4 {.+X|.'.'.Y.Y.Y.Y.E.|.OX#X#X#X#X#X#X#X#X@X#X X].].0.w w @ o X X & ] [ | } } } } } } ..g.l.l.l.l.l.l.l..... . .^ E E E E ",
"T E ^  . . .} } } }  . .} ..^ $ X X X < `.#X|.P.Y.Y.Y.'.Y.E.OX#X#X#X#X#X@X@X#X#X#X#X XE.E.) . X X X X . $ ] } | } } } } } } } l.l.l.l.l.l.l.l.l.......^ E E E E ",
"E E Q } } }  .} } }  . .! L J + o > w ) `.OX].Y.'.U.m.I.U.'.OX#X#X#X#X#X@X@X#X#X XOX[.b.a.t X X X X 7 ( I L L ! } } } } | g...l.l.l.l.l.l.l.l.l.l..... .W W E E ",
"E E ^  . . . . . . . . .F X X X X o.Y.U.'.'.U.Y.Y.b.c.b.Y.Y.OX#X#X#X#X#X#X#X#X#X].Y.b.% @ o o X O + t.W.C.% X G } } } } g.l.l.l.l.l.l.l.l.l.l.l.k. . ./  . .W E ",
"E E ^  . . . . . . .^  .9 X X o o $.Y.Y.Y.'.Y.Y.U.b.c.n.Y.'.OX#X#X#X#X#X#X#X#XOX].Y.a.@ o o X o O + 7.XXC.# X G } } } } g.l.l.l.l.l.l.l.l.l.l.l.k. ./  . . .W E ",
"E E E Q ~  . . . . . . .F X % e.u.m.Y.Y.Y.Y.K.n.b.b.v.m.|.OX@X#X#X#X#X#X#X#X#X#X].E.r.% X X o X X O 7.W.D.% X F } } } } ..g.g......... .l.l.l..... . . . . .W E ",
"E E E E W ^  . . . . . .F X < L.'.Y.Y.Y.Y.Y.m.x.x.v.v.Y.#X#X#X#X#X#X#X#X#X#X#XOX].E.a.+ X o X X X X t.W.D.# O S } } ..} } } } }  . . . ...l.l... . . . . ./ W E ",
"T T E E E  . . . .]  . .S . < K.Y.Y.Y.Y.I.U.b.<.2.v.b.Y.#X#X#X#X#X#X#X#X#X#X X|.J.t.8.+ @ 7 0 7 X X 7.W.D.< . G } } } } } } } }  . .}  ..... . . . . . . ./ W E ",
"D S H E E E E /  . .]  .S . < H.Y.U.Y.Y.b.b.O.$ : w.c.L.#X#X#X#X#X#X#X#X#X XE.E.( O % o @ ' J.r.- X t.W.C.< X 2 } } } } | ..} } } } } } .. . . . . . . . . .W E ",
"A A H E E E E /  . . . .J o 1 K.Y.Y.Y.Y.n.b.O.X $ 2.b.L.#XOX#X#X#X#X#X#X#X|.Y.Y.( . X O + ' R.n.% O 7.W.D.# X F } } } } } } } }  . . . ..... . . . . . . . .~ E ",
"A A H E E E E ^  .^  . .] L U ' X.` X.` Y ` 0 X $ w.b.P.#X#X#X#X#X#X#X#X#X|.Y.Y.( X X O # V.W.R.7.7.R.W.D.#   F } } ..} ..} } }  . . . ..... ./  . . ./ ~ ~ E E ",
"Z Z A E E E E ~  . . ./  . .^ + . X X X X o X X $ w.c.Y.#X#X#X#X#X#X#X#X#X XY.Y.y X o X o i.oXoXoXoX.X.XD.%   F | } } } | }  .} .. . . . . .}  .}  . .~ E E E E ",
"H Z T E E W E ^ } /  . . ...! > = = > : : > @ X $ 2.c.U.OXOXOX#X#X#X#X#X#X[.Y.Y.y X X X o i.oX.X.X}.F.A.t.1 - L  .|  .} ] ] ! ! U ! ! ! }  . . . .]  .~ E E E E ",
"E E E E Q  ./  ./  .} }  . ./ }  .} / }  . .F o @ O.,.c.'.Y. X#X#X#X#X#X#X XY.Y.P X X o @ t..X.XW./.#.+ % ] [ [ } } }  .F O X X + + + + !  . . . . . .^ E E E E ",
"E E E E E  .}  . .} } } } } }  ./  . ./  . .G o @ [ ,.e.Y.'. X#X#X#X#X#X#X XY.Y.P X o X @ t..X.XW..X' X $ ] | | } | | | F o O X + X . + !  . .}  . . .^ E E E E ",
"E E W ^ ^ }  . . . .} } }  .}  . . ./  .}  .J o + 0 q O.m.m.T.[.[.[.[.OX#X XY.Y.y X X X o y +.+.8.' _ L U ] } } | } G G L U U L U 2 X + 2 2 J }  . . .~ ^ ~ E E ",
"E E ^ }  .}  .}  .}  ./ }  . ./  . .}  .}  .J X + X X q c.v.I.T.Y.Y.Y.OX#X XY.Y.y . X X X X X . O @ J }  . .| | } ] = $ J ........J X o X X 2 |  . . . . . .W E ",
"E E ^ }  . . . ......... . . . .}  .}  .}  .L : : @ X 9 <.<.n.I.P.Y.E.|.OX|.Y.Y.$.w 7 X X X X X O O G  .} } ..[ _ U F 2 _ | ..] ! J - 2 + X S .. . . . . . .E E ",
"E E ^ |  . . .g.l.l.l.k...}  . .} } } }  . . .} } ; X @ @ % -.z.b.Y.E.E.Y.E.Y.Y.Y.P.y.+ X X X X O O J  .} | | F X % ' 8.| 9.| - + F } ] - X 2 .. . .^  . . .W E ",
"E E ^  . . . .g.l.l.l.l.g. . . .} }  .} } }  . . .- X X X + ' z.b.Y.E.E.T.Y.Y.Y.Y.E.u.@ X X X X X X L ..| } f.0   # | 8.9.9.' - O F ..} - O S |  .} } } } } W E ",
"E E ^  . ...g.h.l.l.l.l.g.g.g. .}  .} } }  .! F G % X : K y <.z.c.m.m.m.m.K.Y.Y.Y.E.d.O.O.O.O.) + X K | | } =.9   # ' 9.| 9.' - X 1 G G 0 F U .. .} } } } } W E ",
"E E ^  ...l.k.k.l.l.z.l.l.l.k. .} } } }  . .G X X X X w c.x.x.z.x.c.c.z.z.b.Y.Y.Y.Y.E.E.Y.E.E.d.* X K | | =.f.9   @ ' 9.<.<.| ,       O ! } | | } } } } } } W E ",
"E E ^  ...l.l.l.l.l.l.l.l.l.k. . .} } } }  .J X X X X q x.x.c.c.v.b.b.b.b.n.U.L.Y.Y.Y.Y.Y.U.U.a.% X G [ | [ [ 9   @ ' z.| 8.' #       O U [ } }  .} } } } } W E ",
"E E ^ / ..l.l.l.l.l.l.l.l.l.k. .} } } } }  .J X o X X q z.c.m.U.T.OX X|.|.T.c.c.K.Y.K.c.c.( * * + X + $ = $ = o o & -.2.` # #     O   O # % 9 |  .} } } } } W E ",
"E E ^  ...l.l.l.l.l.l.l.l.l.k. . . .} }  . .J X X X . 0 z.z.I.Y.].@X@XOXOXT.w.w.m.Y.H.z.x.w X X X X X X X X X X X % ;.2.s               X O 2 } }  . .} } } W E ",
"E E /  . .g.h.k.l.l.l.l.g.g.g.} } } } } L J 2 X o 0 K ` z.z.m.I.T.OX@X X|.T.n.b.Y.[.'.K.K.s X + 1 1 - X @ e s 6 @ & I O.w $ # # + $ $ + O O - F F ]  . .} } W E ",
"E E /  . . . .g.l.l.l.l.g.}  .} } }  .^ = X X X $ -.z.z.z.z.b.m.T.@X@XT.T.Y.Y.E.|.@X@X@X@X+.X * <.<.K X 7 W..X%.@ & 3 : : - - % - - = % O O X   + ~ ..} } } W E ",
"E E /  . . . ...l.l.l.l....... .} } } ^ % X X X $ ,.z.z.<.2.m.I.T.@X@X'.P.Y.Y.L.|.@X+X@X@Xo.X 1 <.z.K o 7 G.XX3.@ & 6 6 3 & & 3 6 6 6 < # @ #   O Y ..} } } W E ",
"E E W W ~  . . ............. . .} } } ^ = o o o $ <.z.*.1 7 A.|. X@X@X'.Y.s.t w A.#X@X@X@Xf   * j.z.K X 7 G..X3.O # g #.r X * v M.v v v l k p O O ' <.| } } W T ",
"E E E E W  . ./ .. . . . . . . .} } f.^ @ X X X $ ,.x.` X @ S.#X@X@X@X'.E.q.@ X B.#X#X@X@Xg   * <.z.K o 7 G.oX3.  # g 4.r   , N.!.C V V c x h   O ' 9.| } } W E ",
"E E E E W /  . . . . . . . . . .} ! G F $ o 1 K P <.c.[ o # S.#X@X@X#X].E.u.@ o B.#X@X#X@Xg X $ ` ' 6 o < r.i.) o 4 4.4.r   , N.~.^.^.!.B m j   @ ' 9.,.} } W E ",
"E E E E W  . . .} }  . . . . . .} F o X X X K x.z.c.c.` o @ S.#X+X+XoX'.E.u.@ o B.#X@X@X@Xg   X     X   + % ; ; & 6 #.4.a   4 Q.(.$X$X$X~.!.z   @ ' 9.| | | W E ",
"E E E E Q /  . .}  .}  . . . . .} F X o X . P x.z.c.c.*.o $ A.OXOXOXOX`.'.r.$ @ B.@X@X@X@X@.@ $   X O @ @ ; ; : : 6 #.6.a   4 Q.(.).$X$X!.C z O # ' 8.| | ..W E ",
"E E ~ / / ~ Q / } }  . . . . . . .H X X X X K x.c.n.U.1.o # s.'.'.'.].|.@XB.# O B.#X@X#X@XP.s.e.% X 9 Y U % $ q *.O.5.6.a   , Q.(.).$X+X~.!.z   $ ' 8.9.| } L E ",
"E E ^  ./ E E ^  .} /  . . . . .f.F X X X X K x.c.U.Y.1.o $ a.P.Y.P.Y. X#XZ.O O B.#X@X@X@X].Y.d.%   0 =.[ & @ P 2.1.5.6.a   , Q.(.+X$X$X~.!.z O @ ' | |  .} W E ",
"E E ] } } Q W }  .} } } } } } E U 3 X o 7 q O.x.b.U.'.1.o + o.u.d.'.`.OX#XZ.@ @ B.#X#X#X@X].Y.d.$ X K | ] 0 2 _ ,.<.0.3.s   , b !./.).).!.C z X O ' 9.>.}  .W E ",
"E E ^ } } } } } } }  .} } } ] + X X X & w.v.v.c.c.m.'.1.X o o o f @X@X@X#XZ.@ o B.#X#X#X@X].U.s.# X G } | } } | =.=.8.5.s X , x n M M N M M j O @ ' <.>.}  .W E ",
"E E ~  .} } } } } } } } } } ] o X X X * w.b.v.c.b.U.U.1.X + o X f OX@X@X#XZ.% @ p.#X#XOX@X].Y.s.% X G | } | | | =.=.%.0.e   , x n n M M M M j X O ' <.>.} } W E ",
"E E ~ } } } } } } / } } } } ^ = o X X ; e.b.n.I.m.'.'.d.;.O.; X 6 f f d X.%.a.u.[.#XOX].'.E.T.d.$ X L | } }  .| =.=.>.=.F   O u u u p u i i 5 X O ] | } / / W E ",
"E E } } } } }  .} } } }  . .] o X X X ; z.b.n.'.'.'.U.m.c.c.3 X X . . . . t '.'. X#X|.Y.Y.Y.'.d.* o L } } |  ...........F O           X X . X o + ! } }  .} E E ",
"E E ~ } } } } }  ...} }  . .] = o ; 3 q v.b.m.E.'.U.'.m.c.c.Y q q q q q q O.'.P.[.OX XY.Y.Y.E.d.% X L | ..}  .} | ..| ..U - - - - = = - - 1 > - 2 ] } } / / W E ",
"E E ^ } } } } } }  .} } } } ^ o o Y v.v.b.b.m.Y.'.m.'.'.m.'.U.U.P.'.Y.Y.Y.Y.Y.'.Y.'.'.Y.Y.E.E.m.% X G } } }  .} ..} ..} } } } } } } } }  . .} } }  .} ~ E E E E ",
"E E ^ } } }  .}  .} ..} } } ^ = o ^ b.b.n.n.m.'.'.'.'.m.'.U.'.U.'.'.Y.Y.'.Y.Y.Y.'.Y.Y.Y.Y.Y.Y.d.% X L } } ..}  ...} } } } } } }  .}  . . . ...} } ..} ~ E E E E ",
"E E W ~ ~ } } } } } } } }  .} E E W ( G ( ( a ( ( ( ( 3.J.Y.E.Y.Y.E.Y.E.E.E.Y.Y.'.'.m.) ( y y I L L ! } ..} .... .} } } } } } } } } }  .}  . .} }  . .^ ^ ^ W E ",
"E E E E W  . .}  . .} } }  . .}  .T . . X X . . X . . ( E.Y.E.E.E.E.E.E.E.E.E.Y.Y.'.a.X X X X - [ } } } } } } } } } } } } } } f.} } } }  .}  .}  . .}  . . .E E ",
"E E E E E } } } } } }  .} } }  .} J - > - > = X X o X ( d.n.n.d.s.d.d.d.n.d.d.m.d.d.1.$ O X X - [ } }  .........f.f.f.f.f.} f.} }  . .}  .}  . . . . . .}  .E E ",
"E E E E E E E ~  .} / } } }  .} } } } } } } G X X X o + % * % % & % % % % & % % & % @ + X X X - } ..} ....l.l.l.l.l.l.l.f.} / } }  . . .} } } }  . . ./  ./ W E ",
"E E E E E E E } /  .} } } } }  .} } } } } } G X X X O X X X X X X X X o X X X o o X X X X   X % } | } ....l.l.l.l.l.l.l.f. .} } }  . .} }  ./  . . . . . . .Q E ",
"E E E E W ^ ~ }  .} }  .}  .}  .} } } } } } G X X # < < % % + X 2 _ Y Y I w + o X   @ * < * < 1 1 2 U  ...g.g.g.l.l.l.l.g.f.f.} / } } } }  . . . ./  . ./  .Q E ",
"E E E E W } } } }  . .} }  . . .} } } } } } J X X < 1 1 1 < O X w z.z.z.z.{ + o     @ 7 7 6 7 <   O G  .}  .| g.k.l.l.l.l.l.k.f. . .}  .} } }  . . . . . . .Q E ",
"E E W W ~ } } } }  . .} } / }  .} } } } } } F X X < 1 1 1 1 @ O 9 j.j.<.j.| ; ; @   @ 4 1 7 1 1 O O J  .}  . ...k.g.k.g.k.k.g. .} } } }  .} } / /  . . . ./ W R ",
"E E ^  ./  . . . . . ./ ~ E W E W E E W E E Z X o o o + + + $ + > E Q E Q W R R = X X + + + o o + o 2 E E E E Q Q ~ }  . . . .}  .} }  .} } ^ E E /  . . ./ W E ",
"E E ~  . . . . . . . . .W E E E E E E E E E S X o o o o o o + $ > J E E E E T E = + X X o o X X X o Z E E E E E E E } } } } } }  . . . . . .^ E W /  . . . .W R ",
"E E W ~ ^  . . .}  . . ./ ^ ~ ^ ] ^ ~ ~ ~ ^ E J J J J J J L L L Q ^ ^ ~ ^ ^ ~ ~ W J E L J J J J J J W ! ^ ^ ~ ^ ^ ^ } }  . . .}  .} } } ^ ^ ~ E E ~ ~ ~ ~ Q T D ",
"E E E E W /  . .} } }  . . . . . . . . . . . . . . . . . ....... . . .} } } =. . ... . . . .}  .} } ..| } }  . .}  . .}  . ./ f. . . ./ E E E E E E E E R R D Z ",
"E E E E W / / / ^ /  ./  ./  . . . . . . . . . . . . . . . . . . . . .} } } }  . . . .} } } } } } }  .} }  . .}  .} } } } /  ./ ^ / / / W E E E E E E E R R Z Z ",
"E E E E E W W E E E E W E E E }  . . . . . . . . . . .^ T E E T ~  . . . .} }  .} } } E E } } } }  .} } } }  .}  .} E E E E E E E E E E E E E E E E R H A A Z Z ",
"E E T T E E E E E E E E E E E /  . . .}  . . . . . . .^ T E E E ~  . . .}  . . . . ./ E W ^  . .} } }  . . .}  .} } E E E E E E E E E E T E E R E E E H D D Z D ",
"H D D D D D D T E E E E E E E ~ Q Q Q E Q W Q Q ~ E ~ E E E E E W ~ W ~ W W ~ ~ W W W E E E E Q ~ ~ Q Q W Q W Q W E E E E E R D D D D D E E E E E E E E R H H R "
};
