/* XPM */
static char *enel[] = {
/* columns rows colors chars-per-pixel */
"64 43 256 2",
"   c #040304",
".  c #0A090A",
"X  c #070508",
"o  c #170F0F",
"O  c #171417",
"+  c #191526",
"@  c #120A24",
"#  c #201415",
"$  c #3B1C21",
"%  c #251D3A",
"&  c #282628",
"*  c #2E2D31",
"=  c #3B2627",
"-  c #363236",
";  c #312C3B",
":  c #2E2743",
">  c #332C43",
",  c #3C3741",
"<  c #421F23",
"1  c #4C2A2E",
"2  c #48262B",
"3  c #4D2C31",
"4  c #40302F",
"5  c #463838",
"6  c #502C2E",
"7  c #512E32",
"8  c #553A3D",
"9  c #563538",
"0  c #643A3A",
"q  c #593D41",
"w  c #403956",
"e  c #5E433D",
"r  c #66413E",
"t  c #464347",
"y  c #5B4245",
"u  c #5C494B",
"i  c #555154",
"p  c #524B4D",
"a  c #514B63",
"s  c #554F65",
"d  c #64494C",
"f  c #654548",
"g  c #664E51",
"h  c #68564B",
"j  c #6C5255",
"k  c #695557",
"l  c #774947",
"z  c #745B5D",
"x  c #725859",
"c  c #615A72",
"v  c #795F62",
"b  c #776B57",
"n  c #766F47",
"m  c #6C6364",
"M  c #6D667B",
"N  c #7C6365",
"B  c #796767",
"V  c #77706F",
"C  c #767274",
"Z  c #716B73",
"A  c #7C7688",
"S  c #746E81",
"D  c #864D4B",
"F  c #87514D",
"G  c #8B5653",
"H  c #90524E",
"J  c #965B58",
"K  c #847B58",
"L  c #90605F",
"P  c #817B4D",
"I  c #83666A",
"U  c #83696C",
"Y  c #846768",
"T  c #846F71",
"R  c #8D6E72",
"E  c #867A68",
"W  c #8D7275",
"Q  c #89797A",
"!  c #9C6A65",
"~  c #96706F",
"^  c #917376",
"/  c #94767A",
"(  c #95797D",
")  c #9A7B7E",
"_  c #98767B",
"`  c #A2645F",
"'  c #AB6964",
"]  c #A1706C",
"[  c #B26D67",
"{  c #BD736D",
"}  c #BE7873",
"|  c #A87572",
" . c #80778F",
".. c #957E82",
"X. c #9C7E81",
"o. c #867D94",
"O. c #888258",
"+. c #8E8060",
"@. c #918867",
"#. c #96887A",
"$. c #9A9569",
"%. c #999372",
"&. c #8C8774",
"*. c #A49979",
"=. c #A28079",
"-. c #ACA57B",
";. c #B1AA7E",
":. c #B0B37F",
">. c #CD817C",
",. c #D2837C",
"<. c #8A8588",
"1. c #8C8695",
"2. c #9C8285",
"3. c #9C898B",
"4. c #958486",
"5. c #948B95",
"6. c #9C9589",
"7. c #999599",
"8. c #958CA4",
"9. c #9997A4",
"0. c #A28286",
"q. c #A48689",
"w. c #A48A8C",
"e. c #A98A8D",
"r. c #A8868B",
"t. c #A98E91",
"y. c #A68D91",
"u. c #A49A85",
"i. c #A49393",
"p. c #AC9395",
"a. c #AC9B9C",
"s. c #A79998",
"d. c #B18380",
"f. c #B9908E",
"g. c #B19296",
"h. c #B29B9D",
"j. c #B9989A",
"k. c #A39CAD",
"l. c #A49DA4",
"z. c #A49CB3",
"x. c #B49EA1",
"c. c #B99DA1",
"v. c #AAA387",
"b. c #ABA495",
"n. c #B5AD84",
"m. c #B3A998",
"M. c #BCB58B",
"N. c #B9B387",
"B. c #B9B494",
"V. c #A8A5AA",
"C. c #ADA5BC",
"Z. c #AAA6B3",
"A. c #ACB1B9",
"S. c #B5A2A3",
"D. c #B5ABAB",
"F. c #BAA3A5",
"G. c #BDA7A9",
"H. c #BDABAC",
"J. c #B4A8A8",
"K. c #B3ACBA",
"L. c #BCB4A5",
"P. c #BDB2B3",
"I. c #BAB7B8",
"U. c #B3ABC6",
"Y. c #B7B1C3",
"T. c #BCB7C7",
"R. c #BDB5D0",
"E. c #ABABC1",
"W. c #BFC192",
"Q. c #BEC1CA",
"!. c #D98B86",
"~. c #C1BB8E",
"^. c #C3BC95",
"/. c #C2ABAD",
"(. c #C1A6A8",
"). c #C5AFB2",
"_. c #C3B9AB",
"`. c #C3B3B4",
"'. c #C4BABB",
"]. c #CAB5B6",
"[. c #CBBBBB",
"{. c #C6B7B8",
"}. c #D1BBBC",
"|. c #E3938D",
" X c #C3BDCE",
".X c #C5BDC3",
"XX c #D1BFC1",
"oX c #C2BBD4",
"OX c #C9C598",
"+X c #CBD09C",
"@X c #CECAA4",
"#X c #CBC5A8",
"$X c #CEC1BE",
"%X c #CAC6BB",
"&X c #D3CEA8",
"*X c #D4CFB4",
"=X c #D1C3BC",
"-X c #D9D4B9",
";X c #D6D0A7",
":X c #E2EABE",
">X c #C4C2C6",
",X c #CEC4C5",
"<X c #CAC7CA",
"1X c #CBC8D4",
"2X c #CED2DC",
"3X c #D3C4C3",
"4X c #D3CBC5",
"5X c #D4CBCB",
"6X c #DAC7C7",
"7X c #DBCCCC",
"8X c #D6C9C7",
"9X c #D5CED6",
"0X c #DAD5C8",
"qX c #D6D2D3",
"wX c #DDDADB",
"eX c #D9D3D7",
"rX c #DDDBE2",
"tX c #D5D7E2",
"yX c #CCD5E1",
"uX c #DDE1E8",
"iX c #E0CECE",
"pX c #E1DECC",
"aX c #E1DAC8",
"sX c #E2D5D3",
"dX c #E5D9D5",
"fX c #E3DBDB",
"gX c #E9DEDD",
"hX c #E2DEE2",
"jX c #E5DEE6",
"kX c #ECE2DD",
"lX c #EEECDD",
"zX c #E6E5D6",
"xX c #F2F1DE",
"cX c #E6E2CB",
"vX c #E4E2E5",
"bX c #E4E2E8",
"nX c #EAE4E4",
"mX c #E9E6EA",
"MX c #EDEBEC",
"NX c #ECEBE5",
"BX c #EEECF1",
"VX c #F2E6E4",
"CX c #F2EAE6",
"ZX c #F4EDEB",
"AX c #F8ECEB",
"SX c #F1EEF1",
"DX c #F4F3EC",
"FX c #F9F2ED",
"GX c #FDFDEC",
"HX c #F6F6E5",
"JX c #F5F5F5",
"KX c #F7F6F8",
"LX c #FCF5F3",
"PX c #F8F7F8",
"IX c #FDFBF5",
"UX c #FCFCFC",
/* pixels */
"KXKXJXKXPXPXPXPXPXPXPXPXPXPXPXPXUXPXUXPXJXjX9X1X X.XK.K.K.Z.Y..XL.%.q q 9 9 8 8 E N.M.M.M.B._.@X-XzXLXUXUXUXUXUXUXUXUXPXUXUXPXUX",
"JXKXKXKXKXPXPXPXIXPXPXPXUXUXPXUXPXUXPXBXeX X.XY.k.1.5.9.k.Z.k.1.1.B.E d y y q y g n.^.^.^.#X#X*XpXNXUXUXUXUXUXUXUXUXPXUXUXPXUXPX",
"JXKXKXKXPXKXKXKXPXKXPXUXPXUXUXPXPXPXmXtX1XoXR.8.8.Y.2XjXmXbXhXrXk.D.*Xv.N j j z j B m.B.@X*X0XpXNXUXUXUXUXUXUXUXUXUXPXUXUXUXPXUX",
"KXKXKXKXKXPXKXUXPXKXPXPXPXUXUXUXKXbX9X XoXC. .9.BXjX'..XD.#.3.P.sXeXMX0X`...^ R W R Q i.L.=XzXDXUXUXUXUXUXUXUXUXUXUXUXUXUXPXUXUX",
"KXKXIXKXKXKXUXKXUXPXUXPXUXUXUXKXjX<XY.U.9.A U.KX1X4.qXV U H.i.k VXeXJXUXKXkX4XP.S.S.a.I.eXvXUXUXUXUXUXUXUXUXUXUXUXUXUXUXUXPXUXUX",
"JXIXPXPXPXPXPXPXPXUXPXUXUXUXUXmX1XK.R.z. .R.mXa.2.jX3.C G.g s.J.<.AXvXUXUXUXUXIXMXMXmXbXJXUXUXUXUXUXUXUXUXUXUXUXUXUXUXUXUXUXUXPX",
"KXKXPXPXPXPXUXPXUXUXPXUXUXUXBXtXU.R.C.o.C.eX3.i.[.V k NX{.g [.H.u C <XKXUXUXUXUXUXUXUXUXJXUXUXUXUXUXUXUXUXUXUXUXUXUXUXUXUXUXUXUX",
"IXKXPXPXPXPXUXPXUXPXUXUXUXKXjXY.Y.oX8.8.k.2.N 5 * = k s.=XW G.B m B '.UXUXUXUXUXUXUXUXPXJXUXUXUXUXUXUXUXUXUXUXUXUXUXUXUXUXUXUXUX",
"UXPXPXUXUXPXUXPXUXPXUXUXUXmXY.K.oXE.C.1.b e./ k 8 u 5 u F.2.w.x B 4.qXUXUXUXUXUXUXUXUXUXJXUXUXUXUXUXUXUXUXUXUXUXUXUXUXUXUXUXUXUX",
"KXPXPXPXPXUXPXUXUXUXUXUXKX1XZ.K.U.R.E.u u.F.U B 7.T.V.3.`.2...Q <XtXvXPXUXUXUXUXUXUXUXKXmXJXIXUXUXUXUXUXUXUXUXUXUXUXUXUXUXUXUXUX",
"KXKXPXPXUXPXPXUXUXUXUXUXmX.Xz.z.U.U.&.$.cX#.I Y.yX2XyX1XkX3.X.1XtXtXuXUXUXUXUXUXPXmXeX`.(.3XJXCXCXJXUXUXUXUXUXUXUXUXUXUXUXUXUXUX",
"KXUXPXUXPXUXUXUXPXUXUXUXrX.Xk.C.U.6.$.:X=XU ..tXyXQ.A.2XFXS.Q mXuX2XuXUXUXUXKXwXI.a.3.e.j.5XzX-XcXxXFXUXUXUXUXUXUXUXUXUXUXUXUXUX",
"KXKXPXPXPXUXUXUXUXUXUXUXrXK.C.U.V.K :.cXwXv ..SXKXuXuXmXIXgXN {.UXPXKXUXUXfXD.3.Q W ) =.6XxX#X&X6.b.NXIXUXUXUXUXUXUXUXUXUXUXUXUX",
"KXIXPXUXUXUXPXUXUXUXUXUXrXU.Y.C.&.O.+XzXPXXXT '.UXUXKXwXG.VXi.N `.9XqXUX5X4.V v x Y | ] -XcX^.v.t c A.IXUXUXUXUXUXUXUXUXUXUXUXUX",
"GXPXPXUXUXUXUXUXUXUXUXUXrXoXR.5.n n +XFXAXUX3XB 6.{.,Xh.p.CX7XT U ,XJX4XC k g d f L ! ~ -X@X^.%.> s M wXUXUXUXUXUXUXUXUXUXUXUXUX",
"wXIXPXUXUXUXUXUXUXUXUXUXrX1XY.S.@.n OXdXFXFXFX( j W 2.^ nX4X4X'.W {.LX#.y e 8 q l L J | 0X^.~.%.; , A 4XIXUXUXUXUXUXUXUXUXUXUXUX",
"I.IXPXPXUXUXUXUXUXUXUXUXrXoX XP.J.%.O.b.LXLXh.j B N U X.h.V...l.#./.{.x 4 7 9 9 D J D f.lXM.N.-., : 1.NXJXIXUXUXUXUXUXUXUXUXUXUX",
"4XHXIXUXUXUXUXUXUXUXUXUXrX.XP.m..._.O.2.FX/.v U w.p.S./.F.F.i.`.3XeX{.N 2 7 7 9 D H D *.+XN.-.^. .& I.IXGXIXUXUXUXUXUXUXUXUXUXUX",
"HXHXPXPXUXUXUXUXUXUXUXUXvX Xu.0Xa.s.6.=.7XR h.j.V.5XCXBXSXnXZXJXVX.XXXB $ 3 2 0 H H 0 +.OX;.;.@XxX_.HXGXIXIXUXUXUXUXUXUXUXUXUXUX",
"GXGXIXPXUXUXUXUXUXUXUXUXBX<X6.L.).( s.u.i.3.Z.S.V.NXPXIXUXPXUXUXJX.X>Xz $ 1 2 l D 9 7 +.~.;.;.@XGXGXGXxX5XIXUXUXUXUXUXUXUXUXUXUX",
"I.zXIXUXUXUXUXUXUXUXUXUXUX<Xv.%._.7.0Xi.X.x.9.A.Q.BXtXQ.V.l.V.I.2XT.I.m 2 2 2 7 2 2 9 $.^.N.$.B.GXxXGX%XM zXUXUXUXUXUXUXUXUXUXUX",
"t 5.IXUXPXUXUXUXUXUXUXUXUX2XB.%.8XJ.S.S.S.Z.Z.A.<.i * O .     . & 7.I.U 9 2 2 2 6 2 0 -.OXM.K v.IXHXGXV.c >XUXUXUXUXUXUXUXUXUXUX",
"a A NXUXUXUXUXUXUXUXUXUXUXSX#X6.).`.s.%XD.Z.9.-         X X X   & C 7...F.7 1 1 6 6 0 *.OX^.b E b.0XIXV.c T.UXUXUXUXUXUXUXUXUXUX",
"a A MXUXPXUXUXUXUXUXUXUXUXUX4Xu.i.`.%XlX7.A *   X     X       O i t #.R 3Xh.< 6 1 6 6 +.^.OXK O @ Z IXI.c >XUXUXUXUXUXUXUXUXUXUX",
"s 1.SXUXPXUXUXUXUXUXUXUXUXUX4Xs.p.J.=X7Xm - .             X   o + O 6.b Q FX4.2 3 3 1 h b.;X$.o + > zXNX1.eXUXUXUXUXUXUXUXUXUXUX",
"c z.UXUXUXUXUXUXUXUXUXUXUXUX4XJ.w.P.0X`.p & . X       X     . . X O 6.h u S.FXy.1 3 3 e ;.;X;.* + : _.IX<XNXUXUXUXUXUXUXUXUXUXUX",
"S qXUXPXPXUXUXUXUXUXUXUXUXUX<XP.2.a.7X{.i             O 6 = . . o & J.u.y N G.IX).9 3 9 $.&X^.h + > %XHX5XIXUXUXUXUXUXUXUXUXUXUX",
"V.DXKXUXUXUXUXUXUXUXUXUXUXPX8X).4.w.[.[.V   o 4 0 r = r F l l # O * qXpX6.k W F.LXeXx 2 K @X&X*.- , 0XlXDXIXUXUXUXUXUXUXUXUXUXUX",
"pXJXUXUXUXUXPXUXUXUXUXUXUXJXXX).4.U }.sXi.  r F H G F F J G } x O t fXUX0X&.x / x.hXJX..8 *.*XOXv.v.&X0XlXKXUXUXUXUXUXUXUXUXUXUX",
"DXPXUXPXKXUXUXUXUXUXUXUXUXfXXXG.( U [.dX{.X 6 ` ' [ ' J F ` >.|.5 t wXUXFX%XW v / y./.AX`.B n.-X@X&X*XpXDXUXUXUXUXUXUXUXUXUXUXUX",
"JXKXPXPXPXUXUXUXUXUXUXUXnX3X).p.( W H.8X3Xt p { ,.{ { ,.[ G } |.~ 7.qXUXUXIX5X3.N W q.s.sXVX_.#XpX-XcXNXUXUXUXUXUXUXUXUXUXUXUXUX",
"PXIXPXUXUXUXUXKXUXUXUXZX5X[.F.2.2.( F.5X4.D.<.w.{ [ ` ' } L [ !.! V.eXZXUXUXUXnXJ...7.h.h.].mXCXpXDXIXUXUXUXUXUXUXUXUXUXUXUXUXUX",
"KXKXKXUXPXPXUXUXUXUXSX5X}./.c.4.2.0.w.VXh J.I.I.d.L [ [ >.!.!.|.f D.vX{.JXUXUXUXPXQ.1XwXnX{.x.XXZXUXUXUXUXUXUXUXUXUXUXUXUXUXUXUX",
"KXKXIXKXUXUXPXUXUXSX5X`./.F.c.2.q.r.W AXb.4 [.>XwX'.f.[ { ' [ G m NXzXS.`.,XnXKXJX1XBXUXUXJX3XF.H.fXUXUXUXUXUXUXUXUXUXUXUXUXUXUX",
"UXKXUXKXPXUXPXUXMX7X).s.F.j.g.r.e.q.^ ].JXg f 3XNXqX<XP.w.4.( 7.JXMXvXS.`.,X[.'.`.D.qXnXSXUXKX3Xc.F.7XPXUXUXUXUXUXUXUXUXUXUXUXUX",
"KXKXUXKXKXPXUXNX5XH...h.c.p.t.r.r.w.) q.LX].z Y `.<XwXSXUXUXUXUXKXNXNXG.h.AXUXAXVXfX7XsX3X{.H.D.a.c.c.XXLXUXUXPXUXUXUXUXUXUXUXUX",
"ZXKXKXKXPXPXhX5XH.Q w.x.g.t.r.e.0.0.p.^ iXVXg.^ z t.6XDXZXsX%X`.4X[.].7Xq.VXLXFXIXLXIXPXJXgX[.h.p.h.h.x.].JXUXZXmXLXUXUXUXUXUXUX",
"SXmXKXUXJX9X3Xx.T 2.x.g.r.r.w.w.q.^ S.X.p.IX).e.) ) q.j.g.I R N W _ }.VX2.[.UXFXFXFXFXFXIXIXVX(.r.e.t.t.g./.SXUXnXeXmXPXUXUXUXUX",
"mX5X2X5X'.`.7.z W c.t.q.0.r.0.X.q.d S./.R iXAXg.r.0.) ) 0.e.g.t.) e.kX6Xp./ iXIXFXFXFXDXiXF.) q./.iXgX].t.p./.AXUXnX8XfXKXUXUXUX",
"H.S.a.S.c.x.( N X.r.X.X.e.X.) X.Y 8 `.6XR t.FXsXe.e.2._ X.U j y d m.FX/./.U ( 6XIXFXdXg._ w.`.VXUXUXFXFXH.r.t./.AXUXnXXXfXKXUXUX",
"i.3...w.t.w.w.3.2.) X.r.X.^ X.R d 8 $X[.^ ^ ].UX6Xq.r.) ^ x g u R }.AXq.3Xg.I ^ h.h./ w.[.FXLXsX6X7Xp.sXJXg.r.e.).FXIXsX'.fXKXPX",
"eX8X`.g.q.q.r.0.0.X.0.0.^ X./ g e 8 7XG.I ) _ dXUX6Xe.0./ ^ z q ^ 6XFXX.g.AXG.) _ X.=XLXVX].e.) 0._ z G.IXfX2.r.q.].LXLX8XXXvXUX",
"AXFXAXkX].q.q.q.0.0.2._ R N f 8 8 ..DXs.Y _ R p.AXIX6Xr.X.R g d X.dXLX3.I ].AXsX(.7XLX7X(.h.r.0.r.X.x R (.AX`.X.0.2.iXLXAX'.8XMX"
};
