/* XPM */
static char *wall[] = {
/* columns rows colors chars-per-pixel */
"80 80 91 1 ",
"  c #4C4C67",
". c #4E4D69",
"X c #504F6A",
"o c #4F506C",
"O c #52516C",
"+ c #4E5170",
"@ c #535572",
"# c #595673",
"$ c #565976",
"% c #5A5A74",
"& c #525779",
"* c #55597B",
"= c #595D7D",
"- c #615E7C",
"; c #5E617F",
": c #66667B",
"> c #68677B",
", c #67687D",
"< c #69697C",
"1 c #6F707F",
"2 c #595E80",
"3 c #5C6283",
"4 c #5D648B",
"5 c #5F688E",
"6 c #616481",
"7 c #6B6684",
"8 c #656987",
"9 c #696C85",
"0 c #60678D",
"q c #636A8E",
"w c #6A6D8B",
"e c #726B87",
"r c #756E8A",
"t c #6D728D",
"y c #747484",
"u c #797A87",
"i c #71758F",
"p c #79708D",
"a c #76798E",
"s c #656D91",
"d c #686F92",
"f c #6C7394",
"g c #6F7698",
"h c #707695",
"j c #7D7597",
"k c #737996",
"l c #707798",
"z c #747B9A",
"x c #797E9B",
"c c #847C9E",
"v c #7E8195",
"b c #77809C",
"n c #7B839E",
"m c #7E86A1",
"M c #7F88A2",
"N c #818596",
"B c #868997",
"V c #82869B",
"C c #8E829F",
"Z c #868B9E",
"A c #898C9F",
"S c #8F9099",
"D c #92929B",
"F c #8087A1",
"G c #8F82A1",
"H c #838AA3",
"J c #898EA3",
"K c #9083A1",
"L c #9688A7",
"P c #9889A7",
"I c #9789A8",
"U c #998AA9",
"Y c #8A91A6",
"T c #8E95A9",
"R c #9095A7",
"E c #9799A7",
"W c #9B9DA7",
"Q c #9097AA",
"! c #969CAC",
"~ c #989EAD",
"^ c #9BA0AE",
"/ c #9AA0B0",
"( c #A3A6AE",
") c #A7A8AF",
"_ c #AAABAE",
"` c #A2A6B0",
"' c #A6A9B1",
"] c #ACADB2",
"[ c #B0AFB2",
"{ c #AFB0B3",
"} c #B1B2B3",
/* pixels */
"ccc:             .. ..  ....   X      X ... .... . .     .      .   ..... ..eUUP",
"ccc-             .  .  .. .                     .  .            .   ..... ..eUUU",
"jcc%  O:::::::::,<<<:$@$%%%;>><<>>>>>>:>::,<,%. #,,>::<<,:::::>><><<>>>>>O. <KCC",
"OO#X  <)__________]{WwssghhV(]]]'_)_)__)_)_]_u. y______])_____[____{____(:  X##-",
"X     <{}{}{[}}}}{}}^dddzzzJ}}}}}}{{[[}[{{}}{uO.u{}}}}}}}}{}}}}}}}}}}}}}_<     O",
"X   . 1_}}}}}}}}}}}}(gffzbzY}}}}}}}}[}}}{{{{{uOOv{}}}}}{}}}}}}}}}}}}}}}{[< .   X",
"X  9aaB'''''''__('''^JHHYYJQ''']''']''''`(^^^v33v()(])'`)''``(]]'''''''')v99;. X",
". .v~!!~!!!!!!EE!!!!!~//^!!!!!!!!!!~~!~!/QYHZblfv!^^^^^!!!!!!!!!Q!/!Q!!!EYZFt..O",
". ov!!!!!!!!!!!!!!!!!!!!!!!!!!!!!!~~!!!!~QHJHblln!!!!!/!!!~!!!!!Q!/!Q!!~!JFHi. O",
"O .N!!!!!!!!!!!!/!Q!/Q/Q!!!!!!!/~~!~~!~~!QYJHblln!!!/^!!~!!!!!!TQT!!!!!~!JFFi..O",
". .v!!!/!!!!!!!!!!!!THHHQ!!!!!~!!~!!!!!!!~QQ!nlln!!^!!!/!!!!!!YnmmT/!!!!!HFVy..O",
". .c!!!/~^^!!!!!!!!!QMmMT!~!!!!~!~!!!!!!/!~!!nlgn!!/!^/!!!!!!~YbmMQ~!/!!~Hnmw .O",
"O .N!!!!!/!!!~~!!!~!QHFFQ!!!!!~~~!!!!!!!!!/!!ngfn!!!!/!!//!/~~TmmMT!!!~!~Hnnt..O",
"..ON~!!!~!QYTTTQQ!/~!TTQQ!!!!/!!!~~!!~~!!~!!!nggn!!^!!!/!!/QTTTTTTQ~~!TTTFnntO .",
"o ON/!!!!!YMHHHHHT~!!!!!!!!!!!!!!!!~!~!~!!!!!mzgn!!!/!!!!!!HmmYQ!~!!!THMmmnmw...",
"X.Ov~!!!!!YHMHMMHQ!~!!~!!/!~~!/!~~!~!!!~/!!/!nggn!!!!!!!!/QMmMY!!!!~!Tmmmmxmt..O",
"O Ov!Q^Q!!YHHHHHHQ!!~!!!!!!!~/!!!!!!!!!~!!!!!Hzxn!^^^!!!!/!YMMT!!!!/!QYHHmmmt. X",
"X OiJJJMHHT!!!Q!!!~~//!/!!~!!~!TYHY!!~~~/!!!!THHYE!!!!!!!!!!!!!/!~!!!!QQQYMMi. X",
"O OiJMMMmHQ!!/!/~/!!/!!!!!!/!~!JMMH!!~!!!!QQQYJHJ!^^!/!!!!!!!//!~~!!//!!!HHHi .X",
"X  iMMJMHHQ///!!~!~~!~/!!!!!!~!YMmY!~~~~!!!Q!YHHY!^Q!^!!!^!!!!!/~~!!!!!!!HHHh. O",
"o.oiYHYTQT!!/~!//QQQQ!///!!!!//QTQQ//~!!!QHHHYTTQ/^Q^!!!!^^!!!^!//TTTTQ!!HFHh  X",
"O..aHJY!!!/!!!!!!YHMY!/!!!!/!!//!~//!!~!~JddfY!/!^!!!^!!!!^!!^!/!!HMHY!!QJHHh  X",
"X..hYHY!!//!!!!//HMMY!!!/////!/Q!!!!!~~~!YddfY/!^^Q^!^!/^!!!!^^!!!HmMY!!!YHHiX X",
"X.ofHHY!!!!!!!!!/YMmY!!!!!!!!!/Q!!!!!!!!!JddfY!!Q^^!!!!!!T!!TQ!QQTHMMYQ!QHHmi  X",
"...;5sgHJYHYHJHYHHHHHHYHHYHYHYYYYHHYHTHHHmsqdmHYYHHYJYJHmbmmmmmmmbbbbmHHMgdd6XXO",
". .*34dMMMMMHHHHMMHHHHMHHHHHHHHHHHHHHHHHHxssdxHHMMHMMHMnzzzzbzzgzbxzzbmMms44;..O",
"...*43dMHMMHHJHFHHHHHHHHHHHHHHHHHHHHHHHYHmsqsxHHHHMHHMMnbgzzbbzzzzzzzmmHms453o.O",
"o..+**4zzzzzzzzlzzzzzlljzxxzzxlzzxxzxzxzzfqqsgzlzzzzzzzlffffdfddffgfgzzzg32=$ .X",
"o. ...+45540044045002440544444454400s545444444444444444445555444445055554o.. . X",
".     o344444000444044444444422444445554344444344444444444444434444444444o    .X",
".. %:::tffhhhhfhglffflhhq444444dllhhjlgglhhlfflhhgdghfhhfhlq444444ffhhlhh;$$@  O",
"O.OA()()`((())_''''''')`z444444Q]_'']]'''__]_'_]_''')'_]))/f44444qE]')'((Snnt  O",
"O OS{]]]{{{{{{{{]}[]]_])x444548W[}}}}}}}}}}}}}}}}}}}{{}{]{_v34445f^]][{{)RZMa  O",
"O oS{]]]''{}{{{}[]}]]]]'v404448^}}}}}}}}}}}}}}}}}}}}{}}}}_)b34445t^][{}{]QnJt  o",
"O oB^^^^!!^^`^/```(^(~((Jzxl048T''`''(''^'^/]`^^^^''````^^^MlbbnnM^^^^)^^QQQv  O",
"O ov^^QMMMT!!^!!!!!!!!!!THHn440H!!!!~~~~^//!/^^^^^^^/!^!^!^AJMY!Q!!!^^^!^Q^^v.oO",
"o ON^^TYMMT^!!!!!~!~!!!!JHHn544H^!!^~~!!!^!!!^^!^^!^^!!!^Q!YMMT^!!!!^!!!^!^!vo.O",
"o oB^^!MYYT!!!!!!!~~~~~!JHJn440A~!!!~!~!/!/^!!T!!^^!/!^/Q^^JHJYQ!!!!!!^^!QQ!vooO",
"O OB!Q!QQQ!!/!!!~~!!!!!!JHJn435A!~^!^~!^^!!!!YHHY!!!!!^^^!^nbbZ^!^^!!!!!!JHHi..O",
". Ov^!^^^^!^!!^!~~!/~!~!JHJn030H^!!^!!~!^^^/^JHHY!^!^!!!Q^^nbbMQ!^!!!^!^!JMJio O",
". XN^^^^!!/!^!!^!~//!!!!YHJn438H!^!^!!!^!^^!!JMMJ^^!!^!!^!!nnbH!Q^^!^!!!!YHHi..O",
". XN^WR^!^^!!^/!~!!!!/^!RTTZ544Y^!^!^^^!!!TTJTYYQ!!/!!!!TTTbbln!^!!!^!!^!YHHi...",
"X OB^^^^!!^!!^!!/!!/^/^!!!!J435H^!!!^!!!!TMMH!!!^^^///~!JJMzfdn!!^^^!!^^!YHHio.O",
". OB^Q^E^/!!!/!^!//!!Q^^~!~J544J^!^!^!!^!!HMFQ/^!^^!!!!!MJMldfn!^^QQ!!!!!YFHio.O",
"o .vQ^^Q!!!^!!!/^/!!^^^!!QQJq5wJ!!!!^W^^^EHJJ!!^^^!!QQ!TZnnbzbM!^!!^///!!YZFi..X",
"O ovTQQMMYQ!!/!!!!/^^!^QnhklgzzT!!!!^~!!!!!!!!!!!!^!JMFbdfhY!!!!!^^!!!!/!HHFi..O",
". ovQQTMMMY!!/!!!^/!!^^!bfffzzbT!!!^~^!!!!!!!!!^!!^!FmmzssfT^!/!^!!^^!!!!HFJh..o",
". ovQTYMMMQ^!^^!!!!^/^!!zdffzzzT^!!^^!^~//!!/^!!/^!!Jmmz55dT^/!^!!^!/^/!/JHJi..O",
". .ybnnMMHTTTYTTTTTTYTTJlssdhzzFYHYTTTTTTTTYTTTTYYTTzzgllggHTTYTTTTTTTTTYHmmto.O",
".  ;54fMHnMHMHMMFFmmmmmmd44slzhzlzxHHHHMHHHHmmMMMMMMf45dmmMHHMMHHFHHmHHmMzzzw.oO",
"+  ;44fMHHHMHFMMFHmmHmMms44qlhlzlzxHHHHHHHHHHMMHMMMMf54fmmmHHHMMFFHHFmHMHzzzw..O",
"o  *34dnnMMMMMnMmmFmmmmms44sgzzzllzHHFmMHHmmmmmMMmmms54dmmmmmmmmmmmmmHHHmzgg8. O",
"   ooo*sssswssswwqssqsss4445q0q500sswqwsssq0sqsdsqqq5444qsssssqq0sq0sswqq*@@@ .o",
"      o444444454444444444444433454444444445242245444444404004442344444443o    .O",
"o    Oo344404555004445054444444404400440454444445444454440200445445444444+.. ..O",
"o  yvNBAJJAJAAAAYh44dZJJHAZAZZAAZAVJHAAJHJGJAf45gHAAAAJAGHAZJJJHAJAAAHAAZ8;;$...",
"X XD}}}]}}}[}{{}}H05z]{{{{{{]]{]]]]]]]}[}]]}]n54V]}}}]}}}}[}]}]}{{{]{{]]'z4s3..X",
"..OD}]}}[}}}}}{][V0wx[}}{{]{{{{]]]]]][}}]]]__V5sV]}}}}}}{}[[[]]]}]}]]]']]z453o.O",
". OD{]]][[]{{{]]]HfgV'[]]'']]]]]][]]]]]]]])_)VfgJ]]]]}]]'']_][]]]{]]]])'(zsf8. .",
"X XN~~~~~~^^/!!!!YFFJ!~~!~/~~~//~~~////~~!JYTJHJT^^^~~!!TYT!^!~!!/^/!QYYYFVnh..O",
"X  N!!!!!!!!!Q!QQYJHY!!Q!!!!!!!!!!!!!!~!!THHHJYHT!!!!!!TMMMT!!!!!!!!QYMHFFHFhX.X",
".  N~!!!!!Q!!!!!!YHHJQ!!!!!!!!!!~!!!~~~!!THJHHHHT!!!~!!QMmF!!!!!!/!!!YMMHMHFt..O",
"  XN^!!!!!!!!QYYYTTQQ!!!Q!!!TYTQ!!~!!!!!!!JHYYRR!!!!!~!!TTQ!~!~~!!/!!QTTYMMFi. X",
"X .N!!!!Q!!!!QJYY!!!!!!!!!!!HHHQ!!~~!!~!!QJHH!!!!!^!^~!!~~^!!~~~!!/!!!!!!JMFh. X",
"X .B^^!E!!!!!QJHJ!~~!Q//Q//QHmHQ/!!!!!!!!QJFH!//!!!!/!!!~//~~~~~~~!~!!!!QHmFf XX",
"  .N^E!!Q!!!/QJJHQ!!/QQ!!!/QHHHQ/!!!/!Q!QTFFHQ!!!!!/!!!~!!!Q!!!Q!Q!!!!QQQHmFt  X",
"  .N/!THHHQ!!QHHHJJYYYHHQ!!!!Q!//!!!!!YHJFddfY!!//!/~!~/!!!HHHHHHHQ!!QYHHHFHt  X",
"X XN!!EFMHQ!/QYHHJHHHmHMQ/!!!!/!!!!/!!JHFxs0dH!!!!!!!!!!~!QHMmmmHH!!/QHHHHHHhX X",
". .V/!EMMHT!!QJJYHHJHHmHQ//!!!!!!!//!!YHHxq5qJ/!~~!!~!!~!!!HmMMmmMQ/!QYHHHHHl. X",
"...8zbbMMMHTYYzzzFYHHHHHYYYQQTYTTYYHJJHxmz544gxxnHHHJTYIYYYHMMMmMmYYYHmFmzll8..O",
"O. *44fMHHMHHmdsdxHHHHHFmHHHHHHHHHMxzxzllf422444sllzMHHMHmHMmHFHMHHmMmzxzs44= .O",
". .*44fFHHHHHxdsdmHHHHHHmHHHHHHHHHmzzzzllf444442wlzzMMHHHMmmmHFHHHHMHxxxzq552X.O",
"X..*44qMmFFFFbfsdbmFFFFMmmHFFFFFFHxzzzlggs444244sfggmmmmmFmmmmmmxmmmnbzzz0242+.O",
"O...+.*fhzzzzhfsfsqqfzzzzlzlzljlllzldgqq444444422545dfffffhfllffgggggglfw*O+O..O",
"O... .@ffghhggffdq44qghggggffgfddhdhfd02444244444224wdddddddffhdfffddffdw@...  X",
"O...  $fggzzggsssq44qgfgggggfggfhdlhld04444444444442dffffgffffffdddgffdfs@ ..X.@",
"ppr# .O:;;663;==2**&$;;;;;3:3666666662*&22+2****2+&*26336663==:22066-22-=O..#77e",
"PPL>  ............ . ..........OX X  ...    ....+ ......   XX...XX X.. X ...-ccc",
"PPP7   . .. .X..................X  XX  ...  ....     X . X  ..   X    ....X.-ccc",
"UUUrOOXXXOOOOOOOXOOOOXOO.OOOOOOO+OOOXX++++++O@OO++++OXXXO@XXOOXOXXX@XOXXOOOO6ccc"
};
