/* XPM */
static char *walls[] = {
/* columns rows colors chars-per-pixel */
"64 40 96 2",
"   c #000103",
".  c #02070B",
"X  c #060A0E",
"o  c #080C0F",
"O  c #060C11",
"+  c #0A0E12",
"@  c #0C1115",
"#  c #0E151A",
"$  c #151515",
"%  c #13161A",
"&  c #15191D",
"*  c #1C1C1C",
"=  c #141B20",
"-  c #1B1E21",
";  c #1D2125",
":  c #242424",
">  c #232629",
",  c #26292C",
"<  c #2B2B2C",
"1  c #2C2E31",
"2  c #2D3034",
"3  c #333334",
"4  c #343639",
"5  c #37383A",
"6  c #3B3B3C",
"7  c #3D3F41",
"8  c #3E4043",
"9  c #403F3F",
"0  c #434344",
"q  c #454749",
"w  c #474849",
"e  c #4B4B4B",
"r  c #4E4F50",
"t  c #4F5052",
"y  c #504F4F",
"u  c #504F50",
"i  c #535354",
"p  c #565659",
"a  c #57585A",
"s  c #585757",
"d  c #5B5B5B",
"f  c #5E5F60",
"g  c #5F6060",
"h  c #605F5F",
"j  c #636364",
"k  c #666769",
"l  c #66696B",
"z  c #6B6B6C",
"x  c #6E6F70",
"c  c #6F7071",
"v  c #70706F",
"b  c #737374",
"n  c #767778",
"m  c #7B7B7C",
"M  c #7E7F80",
"N  c #7F8081",
"B  c #838384",
"V  c #878789",
"C  c #878889",
"Z  c #888788",
"A  c #888887",
"S  c #8B8B8C",
"D  c #8F8F90",
"F  c #8E9091",
"G  c #908F90",
"H  c #939394",
"J  c #969698",
"K  c #979899",
"L  c #989797",
"P  c #98979A",
"I  c #9B9B9C",
"U  c #9E9EA0",
"Y  c #A2A3A4",
"T  c #A7A6A9",
"R  c #A7A8A9",
"E  c #ABABAC",
"W  c #AFAFB1",
"Q  c #AFB0B1",
"!  c #B4B4B4",
"~  c #B7B7B8",
"^  c #B8B5B8",
"/  c #BABBBC",
"(  c #BFBFC0",
")  c #C0BFC0",
"_  c #C3C3C4",
"`  c #C7C7C8",
"'  c #C8C6C7",
"]  c #CBCBCB",
"[  c #CFCFD0",
"{  c #CFD0D0",
"}  c #D3D3D4",
"|  c #DCDCDC",
" . c #E2E2E2",
".. c #ECECEC",
"X. c #F3F3F3",
"o. c #F8F8F8",
/* pixels */
"$ $ $ o $ $ $ $ $ $ $ $ * * * * : * * : * : : : < : < < < < 3 3 3 9 3 9 3 9 3 9 9 9 9 0 0 w w e e e y e y e e e 0 e i i i i i i ",
"$ $ $ $ $ $ $ $ $ $ $ * * $ * * * * : : : : : < : < < < 3 < 9 3 3 9 9 9 9 9 9 0 0 w 5 > e e e e y y y y i i i k s y e e s s s s ",
"+ $ $ $ $ $ $ $ $ $ $ $ * * * * * : : : : : < < < < < 3 3 9 9 9 9 9 0 0 0 0 0 e e e e e y i i s s s d h h j h h v 5 o @ 5 j d d ",
"$ $ $ $ $ $ $ $ $ $ * * * * : * * : : : < < < < 3 3 < 9 3 9 9 0 9 0 w e e e y e 7 e i i s s d d h j j z z v b n m * % o 4 j d d ",
"$ $ $ $ $ $ $ * $ * * * * * : : : : < : < < 3 3 9 3 9 3 9 0 0 w w e y y i y h < O - i d j k l k v n b B B B S m m i # 4 l s d s ",
"$ $ $ $ $ * $ * * * * * * * * : : : < < < < 3 3 3 9 9 9 0 w e e y i s h h h s h 1 , d z v n n m N B A b m I A B N M k v v j d s ",
"$ $ $ $ $ $ * $ * * : * : : : : : < < < 3 3 3 3 9 0 0 0 0 e y y s h j j z z j b z 0 b n B B D D G A D t * b L D D A N k s j d d ",
"$ $ $ $ * $ * * * * * * : : : : < < 3 3 3 9 9 9 9 0 e y y h h h j z v b v v n N B z x H H E B B ! z s k + , H G A A m v s j s s ",
"$ $ $ * * * * * * : : * : : < < < 3 3 3 5 9 0 9 4 r i f g g l f i n B A B D D F P U U E T m I I I D H b # % 3 L S e d d s d s s ",
"* $ * * * * * * : * : : : < < 3 3 3 3 5 9 9 w e i p a f l l c M m A B v U D J E J U ) P c m ! R H U F I 4 : j B d d j d j s i i ",
"$ * * * * * * : * : : : < < < < 3 5 6 9 9 0 w y p d f l c M N N Z P S Z ~ I W ` / x } M j Y _ E R Y H F S A L n n z j j s i e t ",
"* * * * * : * : : : < < < 3 3 3 3 5 3 9 w e w y f j l n V S N F T W ^ / _ _ | ] } ` [ ~ _ ! _ U H L b K K A N M z d d i t e y 4 ",
"* * * : : : : : : < < < < < 3 9 5 9 9 0 e u i d l v N l 7 J T F ^ ] [ | |  .| R ` ( } x P R H W I A A N B N m z g d i e e 9 6 < ",
"* * * : : : : : < < < < 3 3 3 9 9 0 0 e u s d j v m S S M ! ( E ] ! / ( W / | ..| ' | [ [ W A Y S D S e l v l h d s 0 0 0 9 5 9 ",
": * : : : : < < 3 3 3 9 9 9 9 0 w w 0 s s j j x B Z J H N S U  ...X.X.W ^ J .._ | ..| [ ! U F f b B N j z t s j i e 5 5 0 6 6 5 ",
": : : : < : < < 3 3 5 3 9 9 0 e y i d k z k n n D T N b N R ` o.| | [ .. .n D ] | | } _ T F l a b N l z j a d s y e 0 9 9 6 3 3 ",
"* : : : < < < 3 3 3 5 9 5 9 0 0 e h e h b j m G U ~ R ] ~ ` }  .| ! g ~ N f c  .! } { ! L R m A v d v d j d s y e 0 0 9 5 3 3 < ",
": : : < < < < 3 3 6 9 9 9 0 e 9 y h e 0 j m z k U S F g U N F ( F Q ! { ] ! { Y ] Y L / A B n b b e 9 h e i y w 0 9 9 5 3 3 3 < ",
": < : 3 3 < 3 3 3 5 9 9 0 0 e y u p k k g h M b N x M M b F l Q X.` ..{ E { | N L n Q I n b n v v h e y w w 0 0 9 6 3 3 < < < < ",
"< : < < 3 3 < 9 5 9 0 0 w e y i p h k v k k M J ( ~ ` U ` U Y |  .} ..] { | _ B R Y H m v v v h e t e e e 0 9 9 6 3 3 3 < < < : ",
"< < < 3 < 3 3 3 5 9 9 0 9 0 s i i b N n G m G P M J ` N _ t B | ] ` } X.] Q R I E U n n b v d 0 e q 0 0 0 9 6 6 5 3 3 < < < : : ",
"< < 3 < 3 3 3 9 9 0 q u w i k k k m Z j 6 n W B g q ( N C _  . .! J E  .{ E S Y H A j j v j d s y e 0 0 6 5 6 3 3 3 < < < : : : ",
"$ < y < 3 3 9 0 0 e i e h k j v n B J V f P ' b n g ] W / .. .` r r ~ ` Y Q H A z n b d s d i e y 0 0 9 5 3 3 3 3 < < : : : : : ",
"$ $ 3 9 9 9 e e u u 5 > s j n n n m G B S E ! V , l ] t K } ` ! Y Y ~ E S I C b y h k d i s y 0 0 0 9 6 6 5 3 3 < < < : : : : : ",
"- & - u 0 0 w e u e 4 3 h z b k B A B z R U E / E R Q U A x E Y g F E F g N N c j h d s i e e e 0 9 6 6 3 3 3 < < : : : : : * * ",
"- ; 1 d 0 q e 9 i d 0 k b m n N n G E G H L Y n N ! Y L L d G S 7 n S n l x c l j s y y y e 0 0 9 6 3 < 3 3 < < < : : : * * * * ",
"; - 1 r 0 w r r d j f k k n Z H G G H B I Y I S A L Y L L L N S N N n b b z k f s i e e 0 0 0 6 6 6 3 3 < < : < : : : * * * * * ",
"3 = 4 e i p u p d s k z h x G m H D H A I S m L S S N n b h v b b x l x d d d a e e e e 9 9 9 6 3 3 3 < < < : : : : * * * * * $ ",
"0 0 u w s s w z s 6 f n b M u p n A A j n A m m h v z z h i k j j h h h a i i i 9 0 e 0 6 6 3 3 3 < < < : : : : : * * * * * $ $ ",
"u p q 1 w e % : - x m c b c i k H I N n n b z z z j h h s d d d d d s s d i e e e e 9 9 6 3 3 < < < < : : : : : * * * * * $ * $ ",
"u p u 4 3 = + + % J B t m k v 5 l ] D j d l h j h s s i y s i i s i t y t e e w 0 9 6 6 3 3 < < : : : : * * * * * * $ $ * $ $ $ ",
"u i u ; . @ + # @ , p z T j i 5 & 0 < $ i d s s y i y e e y y y e e e w e 0 0 9 6 6 3 3 3 < < < : : : * : * * * * $ * $ $ $ $ $ ",
"e e 6 o @ @ @ @ @ O 7 T } L 2 , ; @ $ * 0 s y 0 e e 0 9 0 e 0 0 w 0 9 9 9 9 6 6 3 3 3 3 < < < : : : * * * * * $ $ * $ $ $ $ $ $ ",
"e d 2 . @ @ + + + + + E ` ! ! 2 O & # < y e 0 9 0 9 9 9 0 9 9 9 9 6 6 9 6 6 3 3 3 < < < < : : : * * * * * $ $ * $ $ $ $ $ $ $ $ ",
"s j t @ @ @ @ + + % X $ ' E ! } 8 & 9 0 0 0 9 9 9 9 9 3 9 9 9 3 6 6 3 3 3 3 3 < < < < < : : : * * * * $ * $ $ $ $ $ $ $ $ $ $ $ ",
"d 0 e 4 . @ @ @ + + @   p ^ > z F 5 e 0 0 9 3 9 9 3 < 9 < 9 9 < 3 3 3 3 3 3 < < < : : : : * * * * * * $ $ $ $ $ $ $ $ $ $ $ $ $ ",
"i e 6 w * X @ + + + + + @ 2 @   5 0 9 0 9 9 3 9 3 3 3 3 9 < 3 9 3 3 3 < < < < : : : : * * * * * * $ $ $ $ $ $ $ $ $ $ $ $ $ $ $ ",
"e 0 0 0 0 ; + # + + + + + o o & 5 9 9 5 3 9 3 3 < < 3 3 < 9 < 3 < < < < < : < : : : * * * * * * $ * * $ $ $ $ $ o $ $ $ $ $ $ $ ",
"6 6 5 9 9 3 < 3 & O + + @ + * 5 9 5 6 3 3 3 9 3 < < < 3 < < < : < < < : : : : * * * * * * * * $ * $ * $ $ $ $ $ $ $ $ $ $ $ $ o ",
"5 6 6 5 1 < , < 1 : - - & > 3 5 6 3 3 3 3 < < < < < < < < < < : < : : : * : : * * * * * $ * $ $ $ $ $ $ $ $ $ $ $ $ $ o $ $ $ $ "
};
